solid OpenSCAD_Model
  facet normal -1 0 0
    outer loop
      vertex -13.5 -24.5 -1.5
      vertex -13.5 -17 3
      vertex -13.5 -17 -1.5
    endloop
  endfacet
  facet normal -1 -0 0
    outer loop
      vertex -13.5 -17 3
      vertex -13.5 -24.5 -1.5
      vertex -13.5 -24.5 3
    endloop
  endfacet
  facet normal -0 0 1
    outer loop
      vertex -34.5 7.5 -1.5
      vertex -24.5 -7.5 -1.5
      vertex -24.5 7.5 -1.5
    endloop
  endfacet
  facet normal 0 0 1
    outer loop
      vertex -24.5 -7.5 -1.5
      vertex -34.5 7.5 -1.5
      vertex -34.5 -7.5 -1.5
    endloop
  endfacet
  facet normal -0 0 1
    outer loop
      vertex -34.5 24.5 -1.5
      vertex -13.5 17 -1.5
      vertex -13.5 24.5 -1.5
    endloop
  endfacet
  facet normal 0 -0 1
    outer loop
      vertex -15.6839 8.20201 -1.5
      vertex -13.5 17 -1.5
      vertex -24.5 9.5 -1.5
    endloop
  endfacet
  facet normal 0 0 1
    outer loop
      vertex -13.5 17 -1.5
      vertex -15.6839 8.20201 -1.5
      vertex -14.5 9.06218 -1.5
    endloop
  endfacet
  facet normal 0 0 1
    outer loop
      vertex -15.6839 8.20201 -1.5
      vertex -24.5 9.5 -1.5
      vertex -16.6631 7.1145 -1.5
    endloop
  endfacet
  facet normal 0 0 1
    outer loop
      vertex -16.6631 7.1145 -1.5
      vertex -24.5 9.5 -1.5
      vertex -17.3948 5.84716 -1.5
    endloop
  endfacet
  facet normal 0 0 1
    outer loop
      vertex -17.3948 5.84716 -1.5
      vertex -24.5 7.5 -1.5
      vertex -17.847 4.45538 -1.5
    endloop
  endfacet
  facet normal -0 0 1
    outer loop
      vertex -24.5 7.5 -1.5
      vertex -17.3948 5.84716 -1.5
      vertex -24.5 9.5 -1.5
    endloop
  endfacet
  facet normal 0 0 1
    outer loop
      vertex -13.5 17 -1.5
      vertex -34.5 24.5 -1.5
      vertex -24.5 9.5 -1.5
    endloop
  endfacet
  facet normal 0 0 1
    outer loop
      vertex -24.5 9.5 -1.5
      vertex -34.5 24.5 -1.5
      vertex -34.5 9.5 -1.5
    endloop
  endfacet
  facet normal -0 0 1
    outer loop
      vertex -11.7317 -3.96165 -1.5
      vertex -10.5 -17 -1.5
      vertex -10.2683 -3.96165 -1.5
    endloop
  endfacet
  facet normal 0 0 1
    outer loop
      vertex -13.5 -17 -1.5
      vertex -11.7317 -3.96165 -1.5
      vertex -13.1631 -3.6574 -1.5
    endloop
  endfacet
  facet normal 0 0 1
    outer loop
      vertex -11.7317 -3.96165 -1.5
      vertex -13.5 -17 -1.5
      vertex -10.5 -17 -1.5
    endloop
  endfacet
  facet normal 0 0 1
    outer loop
      vertex -14.5 -3.06218 -1.5
      vertex -13.5 -17 -1.5
      vertex -13.1631 -3.6574 -1.5
    endloop
  endfacet
  facet normal -0 0 1
    outer loop
      vertex -24.5 -9.5 -1.5
      vertex -13.5 -17 -1.5
      vertex -14.5 -3.06218 -1.5
    endloop
  endfacet
  facet normal 0 0 1
    outer loop
      vertex -24.5 -7.5 -1.5
      vertex -14.5 -3.06218 -1.5
      vertex -15.6839 -2.20201 -1.5
    endloop
  endfacet
  facet normal 0 0 1
    outer loop
      vertex -24.5 -7.5 -1.5
      vertex -15.6839 -2.20201 -1.5
      vertex -16.6631 -1.1145 -1.5
    endloop
  endfacet
  facet normal 0 0 1
    outer loop
      vertex -24.5 -7.5 -1.5
      vertex -16.6631 -1.1145 -1.5
      vertex -17.3948 0.152843 -1.5
    endloop
  endfacet
  facet normal 0 0 1
    outer loop
      vertex -24.5 -7.5 -1.5
      vertex -17.3948 0.152843 -1.5
      vertex -17.847 1.54462 -1.5
    endloop
  endfacet
  facet normal 0 0 1
    outer loop
      vertex -17.847 4.45538 -1.5
      vertex -24.5 7.5 -1.5
      vertex -18 3 -1.5
    endloop
  endfacet
  facet normal 0 0 1
    outer loop
      vertex -18 3 -1.5
      vertex -24.5 7.5 -1.5
      vertex -17.847 1.54462 -1.5
    endloop
  endfacet
  facet normal 0 0 1
    outer loop
      vertex -24.5 -7.5 -1.5
      vertex -17.847 1.54462 -1.5
      vertex -24.5 7.5 -1.5
    endloop
  endfacet
  facet normal 0 0 1
    outer loop
      vertex -14.5 -3.06218 -1.5
      vertex -24.5 -7.5 -1.5
      vertex -24.5 -9.5 -1.5
    endloop
  endfacet
  facet normal 0 0 1
    outer loop
      vertex -34.5 -24.5 -1.5
      vertex -13.5 -17 -1.5
      vertex -24.5 -9.5 -1.5
    endloop
  endfacet
  facet normal 0 0 1
    outer loop
      vertex -34.5 -24.5 -1.5
      vertex -24.5 -9.5 -1.5
      vertex -34.5 -9.5 -1.5
    endloop
  endfacet
  facet normal 0 0 1
    outer loop
      vertex -13.5 -17 -1.5
      vertex -34.5 -24.5 -1.5
      vertex -13.5 -24.5 -1.5
    endloop
  endfacet
  facet normal 0 0 1
    outer loop
      vertex -10.5 17 -1.5
      vertex 10.5 17 -1.5
      vertex 10.5 24.5 -1.5
    endloop
  endfacet
  facet normal 0 0 1
    outer loop
      vertex -4.15297 1.54462 -1.5
      vertex 10.5 17 -1.5
      vertex -4 3 -1.5
    endloop
  endfacet
  facet normal 0 0 1
    outer loop
      vertex 10.5 17 -1.5
      vertex -4.15297 1.54462 -1.5
      vertex 10.5 -17 -1.5
    endloop
  endfacet
  facet normal 0 0 1
    outer loop
      vertex 10.5 17 -1.5
      vertex -4.15297 4.45538 -1.5
      vertex -4 3 -1.5
    endloop
  endfacet
  facet normal 0 0 1
    outer loop
      vertex 10.5 17 -1.5
      vertex -4.60518 5.84716 -1.5
      vertex -4.15297 4.45538 -1.5
    endloop
  endfacet
  facet normal 0 0 1
    outer loop
      vertex 10.5 17 -1.5
      vertex -5.33688 7.1145 -1.5
      vertex -4.60518 5.84716 -1.5
    endloop
  endfacet
  facet normal 0 0 1
    outer loop
      vertex 10.5 17 -1.5
      vertex -6.31608 8.20201 -1.5
      vertex -5.33688 7.1145 -1.5
    endloop
  endfacet
  facet normal 0 0 1
    outer loop
      vertex 10.5 17 -1.5
      vertex -10.5 17 -1.5
      vertex -6.31608 8.20201 -1.5
    endloop
  endfacet
  facet normal 0 0 1
    outer loop
      vertex -6.31608 8.20201 -1.5
      vertex -10.5 17 -1.5
      vertex -7.5 9.06218 -1.5
    endloop
  endfacet
  facet normal 0 0 1
    outer loop
      vertex -7.5 9.06218 -1.5
      vertex -10.5 17 -1.5
      vertex -8.83688 9.6574 -1.5
    endloop
  endfacet
  facet normal 0 0 1
    outer loop
      vertex -10.5 17 -1.5
      vertex 10.5 24.5 -1.5
      vertex -10.5 24.5 -1.5
    endloop
  endfacet
  facet normal 0 0 1
    outer loop
      vertex -8.83688 9.6574 -1.5
      vertex -10.5 17 -1.5
      vertex -10.2683 9.96165 -1.5
    endloop
  endfacet
  facet normal 0 0 1
    outer loop
      vertex -10.5 17 -1.5
      vertex -11.7317 9.96165 -1.5
      vertex -10.2683 9.96165 -1.5
    endloop
  endfacet
  facet normal -0 0 1
    outer loop
      vertex -13.5 17 -1.5
      vertex -11.7317 9.96165 -1.5
      vertex -10.5 17 -1.5
    endloop
  endfacet
  facet normal 0 0 1
    outer loop
      vertex -11.7317 9.96165 -1.5
      vertex -13.5 17 -1.5
      vertex -13.1631 9.6574 -1.5
    endloop
  endfacet
  facet normal 0 0 1
    outer loop
      vertex -13.1631 9.6574 -1.5
      vertex -13.5 17 -1.5
      vertex -14.5 9.06218 -1.5
    endloop
  endfacet
  facet normal 0 0 1
    outer loop
      vertex 10.5 -17 -1.5
      vertex 24.5 -7.5 -1.5
      vertex 10.5 17 -1.5
    endloop
  endfacet
  facet normal 0 0 1
    outer loop
      vertex 24.5 -7.5 -1.5
      vertex 10.5 -17 -1.5
      vertex 13.5 -17 -1.5
    endloop
  endfacet
  facet normal 0 0 1
    outer loop
      vertex 34.5 24.5 -1.5
      vertex 24.5 9.5 -1.5
      vertex 34.5 9.5 -1.5
    endloop
  endfacet
  facet normal 0 0 1
    outer loop
      vertex 13.5 17 -1.5
      vertex 24.5 7.5 -1.5
      vertex 24.5 9.5 -1.5
    endloop
  endfacet
  facet normal -0 0 1
    outer loop
      vertex 10.5 17 -1.5
      vertex 24.5 7.5 -1.5
      vertex 13.5 17 -1.5
    endloop
  endfacet
  facet normal 0 0 1
    outer loop
      vertex 24.5 -7.5 -1.5
      vertex 13.5 -17 -1.5
      vertex 24.5 -9.5 -1.5
    endloop
  endfacet
  facet normal 0 0 1
    outer loop
      vertex 13.5 17 -1.5
      vertex 34.5 24.5 -1.5
      vertex 13.5 24.5 -1.5
    endloop
  endfacet
  facet normal 0 0 1
    outer loop
      vertex 34.5 24.5 -1.5
      vertex 13.5 17 -1.5
      vertex 24.5 9.5 -1.5
    endloop
  endfacet
  facet normal 0 0 1
    outer loop
      vertex 24.5 7.5 -1.5
      vertex 10.5 17 -1.5
      vertex 24.5 -7.5 -1.5
    endloop
  endfacet
  facet normal 0 0 1
    outer loop
      vertex 24.5 -9.5 -1.5
      vertex 13.5 -17 -1.5
      vertex 16.25 -24.5 -1.5
    endloop
  endfacet
  facet normal 0 0 1
    outer loop
      vertex 16.25 -24.5 -1.5
      vertex 13.5 -17 -1.5
      vertex 13.5 -24.5 -1.5
    endloop
  endfacet
  facet normal -0 0 1
    outer loop
      vertex 24.5 7.5 -1.5
      vertex 34.5 -7.5 -1.5
      vertex 34.5 7.5 -1.5
    endloop
  endfacet
  facet normal 0 0 1
    outer loop
      vertex 34.5 -7.5 -1.5
      vertex 24.5 7.5 -1.5
      vertex 24.5 -7.5 -1.5
    endloop
  endfacet
  facet normal 0 0 1
    outer loop
      vertex 34.5 -9.5 -1.5
      vertex 25.75 -24.5 -1.5
      vertex 34.5 -24.5 -1.5
    endloop
  endfacet
  facet normal -0 0 1
    outer loop
      vertex 24.5 -9.5 -1.5
      vertex 25.75 -24.5 -1.5
      vertex 34.5 -9.5 -1.5
    endloop
  endfacet
  facet normal 0 0 1
    outer loop
      vertex 16.25 -24.5 -1.5
      vertex 25.75 -24.5 -1.5
      vertex 24.5 -9.5 -1.5
    endloop
  endfacet
  facet normal 0 0 1
    outer loop
      vertex 25.75 -24.5 -1.5
      vertex 16.25 -24.5 -1.5
      vertex 25.75 -26.5 -1.5
    endloop
  endfacet
  facet normal 0 0 1
    outer loop
      vertex 25.75 -26.5 -1.5
      vertex 16.25 -24.5 -1.5
      vertex 16.25 -26.5 -1.5
    endloop
  endfacet
  facet normal -0 0 1
    outer loop
      vertex -4.60518 0.152843 -1.5
      vertex 10.5 -17 -1.5
      vertex -4.15297 1.54462 -1.5
    endloop
  endfacet
  facet normal -0 0 1
    outer loop
      vertex -5.33688 -1.1145 -1.5
      vertex 10.5 -17 -1.5
      vertex -4.60518 0.152843 -1.5
    endloop
  endfacet
  facet normal -0 0 1
    outer loop
      vertex -6.31608 -2.20201 -1.5
      vertex 10.5 -17 -1.5
      vertex -5.33688 -1.1145 -1.5
    endloop
  endfacet
  facet normal 0 0 1
    outer loop
      vertex -10.5 -17 -1.5
      vertex 10.5 -17 -1.5
      vertex -6.31608 -2.20201 -1.5
    endloop
  endfacet
  facet normal 0 0 1
    outer loop
      vertex -10.5 -17 -1.5
      vertex -6.31608 -2.20201 -1.5
      vertex -7.5 -3.06218 -1.5
    endloop
  endfacet
  facet normal 0 0 1
    outer loop
      vertex -10.5 -17 -1.5
      vertex -7.5 -3.06218 -1.5
      vertex -8.83688 -3.6574 -1.5
    endloop
  endfacet
  facet normal 0 0 1
    outer loop
      vertex -10.5 -17 -1.5
      vertex -8.83688 -3.6574 -1.5
      vertex -10.2683 -3.96165 -1.5
    endloop
  endfacet
  facet normal 0 0 1
    outer loop
      vertex 10.5 -17 -1.5
      vertex -10.5 -17 -1.5
      vertex 10.5 -24.5 -1.5
    endloop
  endfacet
  facet normal 0 0 1
    outer loop
      vertex 10.5 -24.5 -1.5
      vertex -10.5 -17 -1.5
      vertex -10.5 -24.5 -1.5
    endloop
  endfacet
  facet normal 1 -0 0
    outer loop
      vertex -34.5 -24.5 3
      vertex -34.5 -9.5 -1.5
      vertex -34.5 -9.5 3
    endloop
  endfacet
  facet normal 1 0 0
    outer loop
      vertex -34.5 -9.5 -1.5
      vertex -34.5 -24.5 3
      vertex -34.5 -24.5 -1.5
    endloop
  endfacet
  facet normal 0 -1 0
    outer loop
      vertex -34.5 -9.5 -1.5
      vertex -24.5 -9.5 3
      vertex -34.5 -9.5 3
    endloop
  endfacet
  facet normal 0 -1 -0
    outer loop
      vertex -24.5 -9.5 3
      vertex -34.5 -9.5 -1.5
      vertex -24.5 -9.5 -1.5
    endloop
  endfacet
  facet normal 0 1 -0
    outer loop
      vertex -13.5 -24.5 -1.5
      vertex -34.5 -24.5 3
      vertex -13.5 -24.5 3
    endloop
  endfacet
  facet normal 0 1 0
    outer loop
      vertex -34.5 -24.5 3
      vertex -13.5 -24.5 -1.5
      vertex -34.5 -24.5 -1.5
    endloop
  endfacet
  facet normal 1 -0 0
    outer loop
      vertex -34.5 -7.5 3
      vertex -34.5 7.5 -1.5
      vertex -34.5 7.5 3
    endloop
  endfacet
  facet normal 1 0 0
    outer loop
      vertex -34.5 7.5 -1.5
      vertex -34.5 -7.5 3
      vertex -34.5 -7.5 -1.5
    endloop
  endfacet
  facet normal 0 -1 0
    outer loop
      vertex -34.5 7.5 -1.5
      vertex -24.5 7.5 3
      vertex -34.5 7.5 3
    endloop
  endfacet
  facet normal 0 -1 -0
    outer loop
      vertex -24.5 7.5 3
      vertex -34.5 7.5 -1.5
      vertex -24.5 7.5 -1.5
    endloop
  endfacet
  facet normal 0 1 -0
    outer loop
      vertex -24.5 -7.5 -1.5
      vertex -34.5 -7.5 3
      vertex -24.5 -7.5 3
    endloop
  endfacet
  facet normal 0 1 0
    outer loop
      vertex -34.5 -7.5 3
      vertex -24.5 -7.5 -1.5
      vertex -34.5 -7.5 -1.5
    endloop
  endfacet
  facet normal -1 0 0
    outer loop
      vertex -13.5 17 -1.5
      vertex -13.5 24.5 3
      vertex -13.5 24.5 -1.5
    endloop
  endfacet
  facet normal -1 -0 0
    outer loop
      vertex -13.5 24.5 3
      vertex -13.5 17 -1.5
      vertex -13.5 17 3
    endloop
  endfacet
  facet normal 1 -0 0
    outer loop
      vertex -34.5 9.5 3
      vertex -34.5 24.5 -1.5
      vertex -34.5 24.5 3
    endloop
  endfacet
  facet normal 1 0 0
    outer loop
      vertex -34.5 24.5 -1.5
      vertex -34.5 9.5 3
      vertex -34.5 9.5 -1.5
    endloop
  endfacet
  facet normal 0 -1 0
    outer loop
      vertex -34.5 24.5 -1.5
      vertex -13.5 24.5 3
      vertex -34.5 24.5 3
    endloop
  endfacet
  facet normal 0 -1 -0
    outer loop
      vertex -13.5 24.5 3
      vertex -34.5 24.5 -1.5
      vertex -13.5 24.5 -1.5
    endloop
  endfacet
  facet normal 0 1 -0
    outer loop
      vertex -24.5 9.5 -1.5
      vertex -34.5 9.5 3
      vertex -24.5 9.5 3
    endloop
  endfacet
  facet normal 0 1 0
    outer loop
      vertex -34.5 9.5 3
      vertex -24.5 9.5 -1.5
      vertex -34.5 9.5 -1.5
    endloop
  endfacet
  facet normal -1 0 0
    outer loop
      vertex 10.5 -24.5 -1.5
      vertex 10.5 -17 3
      vertex 10.5 -17 -1.5
    endloop
  endfacet
  facet normal -1 -0 0
    outer loop
      vertex 10.5 -17 3
      vertex 10.5 -24.5 -1.5
      vertex 10.5 -24.5 3
    endloop
  endfacet
  facet normal 1 -0 0
    outer loop
      vertex -10.5 -24.5 3
      vertex -10.5 -17 -1.5
      vertex -10.5 -17 3
    endloop
  endfacet
  facet normal 1 0 0
    outer loop
      vertex -10.5 -17 -1.5
      vertex -10.5 -24.5 3
      vertex -10.5 -24.5 -1.5
    endloop
  endfacet
  facet normal 0 1 -0
    outer loop
      vertex 10.5 -24.5 -1.5
      vertex -10.5 -24.5 3
      vertex 10.5 -24.5 3
    endloop
  endfacet
  facet normal 0 1 0
    outer loop
      vertex -10.5 -24.5 3
      vertex 10.5 -24.5 -1.5
      vertex -10.5 -24.5 -1.5
    endloop
  endfacet
  facet normal -1 0 0
    outer loop
      vertex 10.5 17 -1.5
      vertex 10.5 24.5 3
      vertex 10.5 24.5 -1.5
    endloop
  endfacet
  facet normal -1 -0 0
    outer loop
      vertex 10.5 24.5 3
      vertex 10.5 17 -1.5
      vertex 10.5 17 3
    endloop
  endfacet
  facet normal 1 -0 0
    outer loop
      vertex -10.5 17 3
      vertex -10.5 24.5 -1.5
      vertex -10.5 24.5 3
    endloop
  endfacet
  facet normal 1 0 0
    outer loop
      vertex -10.5 24.5 -1.5
      vertex -10.5 17 3
      vertex -10.5 17 -1.5
    endloop
  endfacet
  facet normal 0 -1 0
    outer loop
      vertex -10.5 24.5 -1.5
      vertex 10.5 24.5 3
      vertex -10.5 24.5 3
    endloop
  endfacet
  facet normal 0 -1 -0
    outer loop
      vertex 10.5 24.5 3
      vertex -10.5 24.5 -1.5
      vertex 10.5 24.5 -1.5
    endloop
  endfacet
  facet normal -1 0 0
    outer loop
      vertex 34.5 -24.5 -1.5
      vertex 34.5 -9.5 3
      vertex 34.5 -9.5 -1.5
    endloop
  endfacet
  facet normal -1 -0 0
    outer loop
      vertex 34.5 -9.5 3
      vertex 34.5 -24.5 -1.5
      vertex 34.5 -24.5 3
    endloop
  endfacet
  facet normal 1 -0 0
    outer loop
      vertex 13.5 -24.5 3
      vertex 13.5 -17 -1.5
      vertex 13.5 -17 3
    endloop
  endfacet
  facet normal 1 0 0
    outer loop
      vertex 13.5 -17 -1.5
      vertex 13.5 -24.5 3
      vertex 13.5 -24.5 -1.5
    endloop
  endfacet
  facet normal 0 -1 0
    outer loop
      vertex 24.5 -9.5 -1.5
      vertex 34.5 -9.5 3
      vertex 24.5 -9.5 3
    endloop
  endfacet
  facet normal 0 -1 -0
    outer loop
      vertex 34.5 -9.5 3
      vertex 24.5 -9.5 -1.5
      vertex 34.5 -9.5 -1.5
    endloop
  endfacet
  facet normal 0 1 -0
    outer loop
      vertex 34.5 -24.5 -1.5
      vertex 25.75 -24.5 3
      vertex 34.5 -24.5 3
    endloop
  endfacet
  facet normal 0 1 0
    outer loop
      vertex 25.75 -24.5 3
      vertex 34.5 -24.5 -1.5
      vertex 25.75 -24.5 -1.5
    endloop
  endfacet
  facet normal 0 1 -0
    outer loop
      vertex 16.25 -24.5 -1.5
      vertex 13.5 -24.5 3
      vertex 16.25 -24.5 3
    endloop
  endfacet
  facet normal 0 1 0
    outer loop
      vertex 13.5 -24.5 3
      vertex 16.25 -24.5 -1.5
      vertex 13.5 -24.5 -1.5
    endloop
  endfacet
  facet normal -1 0 0
    outer loop
      vertex 34.5 -7.5 -1.5
      vertex 34.5 7.5 3
      vertex 34.5 7.5 -1.5
    endloop
  endfacet
  facet normal -1 -0 0
    outer loop
      vertex 34.5 7.5 3
      vertex 34.5 -7.5 -1.5
      vertex 34.5 -7.5 3
    endloop
  endfacet
  facet normal 0 -1 0
    outer loop
      vertex 24.5 7.5 -1.5
      vertex 34.5 7.5 3
      vertex 24.5 7.5 3
    endloop
  endfacet
  facet normal 0 -1 -0
    outer loop
      vertex 34.5 7.5 3
      vertex 24.5 7.5 -1.5
      vertex 34.5 7.5 -1.5
    endloop
  endfacet
  facet normal 0 1 -0
    outer loop
      vertex 34.5 -7.5 -1.5
      vertex 24.5 -7.5 3
      vertex 34.5 -7.5 3
    endloop
  endfacet
  facet normal 0 1 0
    outer loop
      vertex 24.5 -7.5 3
      vertex 34.5 -7.5 -1.5
      vertex 24.5 -7.5 -1.5
    endloop
  endfacet
  facet normal -1 0 0
    outer loop
      vertex 34.5 9.5 -1.5
      vertex 34.5 24.5 3
      vertex 34.5 24.5 -1.5
    endloop
  endfacet
  facet normal -1 -0 0
    outer loop
      vertex 34.5 24.5 3
      vertex 34.5 9.5 -1.5
      vertex 34.5 9.5 3
    endloop
  endfacet
  facet normal 1 -0 0
    outer loop
      vertex 13.5 17 3
      vertex 13.5 24.5 -1.5
      vertex 13.5 24.5 3
    endloop
  endfacet
  facet normal 1 0 0
    outer loop
      vertex 13.5 24.5 -1.5
      vertex 13.5 17 3
      vertex 13.5 17 -1.5
    endloop
  endfacet
  facet normal 0 -1 0
    outer loop
      vertex 13.5 24.5 -1.5
      vertex 34.5 24.5 3
      vertex 13.5 24.5 3
    endloop
  endfacet
  facet normal 0 -1 -0
    outer loop
      vertex 34.5 24.5 3
      vertex 13.5 24.5 -1.5
      vertex 34.5 24.5 -1.5
    endloop
  endfacet
  facet normal 0 1 -0
    outer loop
      vertex 34.5 9.5 -1.5
      vertex 24.5 9.5 3
      vertex 34.5 9.5 3
    endloop
  endfacet
  facet normal 0 1 0
    outer loop
      vertex 24.5 9.5 3
      vertex 34.5 9.5 -1.5
      vertex 24.5 9.5 -1.5
    endloop
  endfacet
  facet normal -0.613025 -0.790064 0
    outer loop
      vertex -34.0749 -26.188 -3
      vertex -33.8598 -26.3549 3
      vertex -34.0749 -26.188 3
    endloop
  endfacet
  facet normal -0.613025 -0.790064 -0
    outer loop
      vertex -33.8598 -26.3549 3
      vertex -34.0749 -26.188 -3
      vertex -33.8598 -26.3549 -3
    endloop
  endfacet
  facet normal -0.826988 -0.56222 0
    outer loop
      vertex -36.6749 -23.4193 -3
      vertex -36.828 -23.1941 3
      vertex -36.828 -23.1941 -3
    endloop
  endfacet
  facet normal -0.826988 -0.56222 0
    outer loop
      vertex -36.828 -23.1941 3
      vertex -36.6749 -23.4193 -3
      vertex -36.6749 -23.4193 3
    endloop
  endfacet
  facet normal -0.838712 -0.544575 0
    outer loop
      vertex -36.828 -23.1941 -3
      vertex -36.9763 -22.9657 3
      vertex -36.9763 -22.9657 -3
    endloop
  endfacet
  facet normal -0.838712 -0.544575 0
    outer loop
      vertex -36.9763 -22.9657 3
      vertex -36.828 -23.1941 -3
      vertex -36.828 -23.1941 3
    endloop
  endfacet
  facet normal -0.676921 -0.736055 0
    outer loop
      vertex -34.8991 -25.4766 -3
      vertex -34.6987 -25.6609 3
      vertex -34.8991 -25.4766 3
    endloop
  endfacet
  facet normal -0.676921 -0.736055 -0
    outer loop
      vertex -34.6987 -25.6609 3
      vertex -34.8991 -25.4766 -3
      vertex -34.6987 -25.6609 -3
    endloop
  endfacet
  facet normal -0.661257 -0.750159 0
    outer loop
      vertex -34.6987 -25.6609 -3
      vertex -34.4945 -25.8409 3
      vertex -34.6987 -25.6609 3
    endloop
  endfacet
  facet normal -0.661257 -0.750159 -0
    outer loop
      vertex -34.4945 -25.8409 3
      vertex -34.6987 -25.6609 -3
      vertex -34.4945 -25.8409 -3
    endloop
  endfacet
  facet normal -0.815121 -0.579291 0
    outer loop
      vertex -36.5172 -23.6412 -3
      vertex -36.6749 -23.4193 3
      vertex -36.6749 -23.4193 -3
    endloop
  endfacet
  facet normal -0.815121 -0.579291 0
    outer loop
      vertex -36.6749 -23.4193 3
      vertex -36.5172 -23.6412 -3
      vertex -36.5172 -23.6412 3
    endloop
  endfacet
  facet normal -0.721644 -0.692264 0
    outer loop
      vertex -35.2881 -25.0956 -3
      vertex -35.4766 -24.8991 3
      vertex -35.4766 -24.8991 -3
    endloop
  endfacet
  facet normal -0.721644 -0.692264 0
    outer loop
      vertex -35.4766 -24.8991 3
      vertex -35.2881 -25.0956 -3
      vertex -35.2881 -25.0956 3
    endloop
  endfacet
  facet normal -0.692264 -0.721644 0
    outer loop
      vertex -35.0956 -25.2881 -3
      vertex -34.8991 -25.4766 3
      vertex -35.0956 -25.2881 3
    endloop
  endfacet
  facet normal -0.692264 -0.721644 -0
    outer loop
      vertex -34.8991 -25.4766 3
      vertex -35.0956 -25.2881 -3
      vertex -34.8991 -25.4766 -3
    endloop
  endfacet
  facet normal -0.763748 -0.645514 0
    outer loop
      vertex -35.8409 -24.4945 -3
      vertex -36.0167 -24.2865 3
      vertex -36.0167 -24.2865 -3
    endloop
  endfacet
  facet normal -0.763748 -0.645514 0
    outer loop
      vertex -36.0167 -24.2865 3
      vertex -35.8409 -24.4945 -3
      vertex -35.8409 -24.4945 3
    endloop
  endfacet
  facet normal -0.645514 -0.763748 0
    outer loop
      vertex -34.4945 -25.8409 -3
      vertex -34.2865 -26.0167 3
      vertex -34.4945 -25.8409 3
    endloop
  endfacet
  facet normal -0.645514 -0.763748 -0
    outer loop
      vertex -34.2865 -26.0167 3
      vertex -34.4945 -25.8409 -3
      vertex -34.2865 -26.0167 -3
    endloop
  endfacet
  facet normal -0.750159 -0.661257 0
    outer loop
      vertex -35.6609 -24.6987 -3
      vertex -35.8409 -24.4945 3
      vertex -35.8409 -24.4945 -3
    endloop
  endfacet
  facet normal -0.750159 -0.661257 0
    outer loop
      vertex -35.8409 -24.4945 3
      vertex -35.6609 -24.6987 -3
      vertex -35.6609 -24.6987 3
    endloop
  endfacet
  facet normal -0.849743 -0.527197 0
    outer loop
      vertex -36.9763 -22.9657 -3
      vertex -37 -22.9275 3
      vertex -37 -22.9275 -3
    endloop
  endfacet
  facet normal -0.849743 -0.527197 0
    outer loop
      vertex -37 -22.9275 3
      vertex -36.9763 -22.9657 -3
      vertex -36.9763 -22.9657 3
    endloop
  endfacet
  facet normal -0.736055 -0.676921 0
    outer loop
      vertex -35.4766 -24.8991 -3
      vertex -35.6609 -24.6987 3
      vertex -35.6609 -24.6987 -3
    endloop
  endfacet
  facet normal -0.736055 -0.676921 0
    outer loop
      vertex -35.6609 -24.6987 3
      vertex -35.4766 -24.8991 -3
      vertex -35.4766 -24.8991 3
    endloop
  endfacet
  facet normal -0.59618 -0.802851 0
    outer loop
      vertex -33.8598 -26.3549 -3
      vertex -33.6644 -26.5 3
      vertex -33.8598 -26.3549 3
    endloop
  endfacet
  facet normal -0.59618 -0.802851 -0
    outer loop
      vertex -33.6644 -26.5 3
      vertex -33.8598 -26.3549 -3
      vertex -33.6644 -26.5 -3
    endloop
  endfacet
  facet normal -0.777236 -0.629209 0
    outer loop
      vertex -36.0167 -24.2865 -3
      vertex -36.188 -24.0749 3
      vertex -36.188 -24.0749 -3
    endloop
  endfacet
  facet normal -0.777236 -0.629209 0
    outer loop
      vertex -36.188 -24.0749 3
      vertex -36.0167 -24.2865 -3
      vertex -36.0167 -24.2865 3
    endloop
  endfacet
  facet normal -0.790064 -0.613025 0
    outer loop
      vertex -36.188 -24.0749 -3
      vertex -36.3549 -23.8598 3
      vertex -36.3549 -23.8598 -3
    endloop
  endfacet
  facet normal -0.790064 -0.613025 0
    outer loop
      vertex -36.3549 -23.8598 3
      vertex -36.188 -24.0749 -3
      vertex -36.188 -24.0749 3
    endloop
  endfacet
  facet normal -0.707107 -0.707107 0
    outer loop
      vertex -35.0956 -25.2881 -3
      vertex -35.2881 -25.0956 3
      vertex -35.2881 -25.0956 -3
    endloop
  endfacet
  facet normal -0.707107 -0.707107 0
    outer loop
      vertex -35.2881 -25.0956 3
      vertex -35.0956 -25.2881 -3
      vertex -35.0956 -25.2881 3
    endloop
  endfacet
  facet normal -0.8029 -0.596114 0
    outer loop
      vertex -36.3549 -23.8598 -3
      vertex -36.5172 -23.6412 3
      vertex -36.5172 -23.6412 -3
    endloop
  endfacet
  facet normal -0.8029 -0.596114 0
    outer loop
      vertex -36.5172 -23.6412 3
      vertex -36.3549 -23.8598 -3
      vertex -36.3549 -23.8598 3
    endloop
  endfacet
  facet normal -0.629209 -0.777236 0
    outer loop
      vertex -34.2865 -26.0167 -3
      vertex -34.0749 -26.188 3
      vertex -34.2865 -26.0167 3
    endloop
  endfacet
  facet normal -0.629209 -0.777236 -0
    outer loop
      vertex -34.0749 -26.188 3
      vertex -34.2865 -26.0167 -3
      vertex -34.0749 -26.188 -3
    endloop
  endfacet
  facet normal -0.8029 0.596114 0
    outer loop
      vertex -36.5172 23.6412 -3
      vertex -36.3549 23.8598 3
      vertex -36.3549 23.8598 -3
    endloop
  endfacet
  facet normal -0.8029 0.596114 0
    outer loop
      vertex -36.3549 23.8598 3
      vertex -36.5172 23.6412 -3
      vertex -36.5172 23.6412 3
    endloop
  endfacet
  facet normal -0.826988 0.56222 0
    outer loop
      vertex -36.828 23.1941 -3
      vertex -36.6749 23.4193 3
      vertex -36.6749 23.4193 -3
    endloop
  endfacet
  facet normal -0.826988 0.56222 0
    outer loop
      vertex -36.6749 23.4193 3
      vertex -36.828 23.1941 -3
      vertex -36.828 23.1941 3
    endloop
  endfacet
  facet normal -0.777236 0.629209 0
    outer loop
      vertex -36.188 24.0749 -3
      vertex -36.0167 24.2865 3
      vertex -36.0167 24.2865 -3
    endloop
  endfacet
  facet normal -0.777236 0.629209 0
    outer loop
      vertex -36.0167 24.2865 3
      vertex -36.188 24.0749 -3
      vertex -36.188 24.0749 3
    endloop
  endfacet
  facet normal -0.721644 0.692264 0
    outer loop
      vertex -35.4766 24.8991 -3
      vertex -35.2881 25.0956 3
      vertex -35.2881 25.0956 -3
    endloop
  endfacet
  facet normal -0.721644 0.692264 0
    outer loop
      vertex -35.2881 25.0956 3
      vertex -35.4766 24.8991 -3
      vertex -35.4766 24.8991 3
    endloop
  endfacet
  facet normal -0.790064 0.613025 0
    outer loop
      vertex -36.3549 23.8598 -3
      vertex -36.188 24.0749 3
      vertex -36.188 24.0749 -3
    endloop
  endfacet
  facet normal -0.790064 0.613025 0
    outer loop
      vertex -36.188 24.0749 3
      vertex -36.3549 23.8598 -3
      vertex -36.3549 23.8598 3
    endloop
  endfacet
  facet normal -0.661257 0.750159 0
    outer loop
      vertex -34.4945 25.8409 -3
      vertex -34.6987 25.6609 3
      vertex -34.4945 25.8409 3
    endloop
  endfacet
  facet normal -0.661257 0.750159 0
    outer loop
      vertex -34.6987 25.6609 3
      vertex -34.4945 25.8409 -3
      vertex -34.6987 25.6609 -3
    endloop
  endfacet
  facet normal -0.736055 0.676921 0
    outer loop
      vertex -35.6609 24.6987 -3
      vertex -35.4766 24.8991 3
      vertex -35.4766 24.8991 -3
    endloop
  endfacet
  facet normal -0.736055 0.676921 0
    outer loop
      vertex -35.4766 24.8991 3
      vertex -35.6609 24.6987 -3
      vertex -35.6609 24.6987 3
    endloop
  endfacet
  facet normal -0.692264 0.721644 0
    outer loop
      vertex -34.8991 25.4766 -3
      vertex -35.0956 25.2881 3
      vertex -34.8991 25.4766 3
    endloop
  endfacet
  facet normal -0.692264 0.721644 0
    outer loop
      vertex -35.0956 25.2881 3
      vertex -34.8991 25.4766 -3
      vertex -35.0956 25.2881 -3
    endloop
  endfacet
  facet normal -0.629209 0.777236 0
    outer loop
      vertex -34.0749 26.188 -3
      vertex -34.2865 26.0167 3
      vertex -34.0749 26.188 3
    endloop
  endfacet
  facet normal -0.629209 0.777236 0
    outer loop
      vertex -34.2865 26.0167 3
      vertex -34.0749 26.188 -3
      vertex -34.2865 26.0167 -3
    endloop
  endfacet
  facet normal -0.613025 0.790064 0
    outer loop
      vertex -33.8598 26.3549 -3
      vertex -34.0749 26.188 3
      vertex -33.8598 26.3549 3
    endloop
  endfacet
  facet normal -0.613025 0.790064 0
    outer loop
      vertex -34.0749 26.188 3
      vertex -33.8598 26.3549 -3
      vertex -34.0749 26.188 -3
    endloop
  endfacet
  facet normal -0.676921 0.736055 0
    outer loop
      vertex -34.6987 25.6609 -3
      vertex -34.8991 25.4766 3
      vertex -34.6987 25.6609 3
    endloop
  endfacet
  facet normal -0.676921 0.736055 0
    outer loop
      vertex -34.8991 25.4766 3
      vertex -34.6987 25.6609 -3
      vertex -34.8991 25.4766 -3
    endloop
  endfacet
  facet normal -0.750159 0.661257 0
    outer loop
      vertex -35.8409 24.4945 -3
      vertex -35.6609 24.6987 3
      vertex -35.6609 24.6987 -3
    endloop
  endfacet
  facet normal -0.750159 0.661257 0
    outer loop
      vertex -35.6609 24.6987 3
      vertex -35.8409 24.4945 -3
      vertex -35.8409 24.4945 3
    endloop
  endfacet
  facet normal -0.838712 0.544575 0
    outer loop
      vertex -36.9763 22.9657 -3
      vertex -36.828 23.1941 3
      vertex -36.828 23.1941 -3
    endloop
  endfacet
  facet normal -0.838712 0.544575 0
    outer loop
      vertex -36.828 23.1941 3
      vertex -36.9763 22.9657 -3
      vertex -36.9763 22.9657 3
    endloop
  endfacet
  facet normal -0.59618 0.802851 0
    outer loop
      vertex -33.6644 26.5 -3
      vertex -33.8598 26.3549 3
      vertex -33.6644 26.5 3
    endloop
  endfacet
  facet normal -0.59618 0.802851 0
    outer loop
      vertex -33.8598 26.3549 3
      vertex -33.6644 26.5 -3
      vertex -33.8598 26.3549 -3
    endloop
  endfacet
  facet normal -0.645514 0.763748 0
    outer loop
      vertex -34.2865 26.0167 -3
      vertex -34.4945 25.8409 3
      vertex -34.2865 26.0167 3
    endloop
  endfacet
  facet normal -0.645514 0.763748 0
    outer loop
      vertex -34.4945 25.8409 3
      vertex -34.2865 26.0167 -3
      vertex -34.4945 25.8409 -3
    endloop
  endfacet
  facet normal -0.763748 0.645514 0
    outer loop
      vertex -36.0167 24.2865 -3
      vertex -35.8409 24.4945 3
      vertex -35.8409 24.4945 -3
    endloop
  endfacet
  facet normal -0.763748 0.645514 0
    outer loop
      vertex -35.8409 24.4945 3
      vertex -36.0167 24.2865 -3
      vertex -36.0167 24.2865 3
    endloop
  endfacet
  facet normal -0.815121 0.579291 0
    outer loop
      vertex -36.6749 23.4193 -3
      vertex -36.5172 23.6412 3
      vertex -36.5172 23.6412 -3
    endloop
  endfacet
  facet normal -0.815121 0.579291 0
    outer loop
      vertex -36.5172 23.6412 3
      vertex -36.6749 23.4193 -3
      vertex -36.6749 23.4193 3
    endloop
  endfacet
  facet normal -0.707107 0.707107 0
    outer loop
      vertex -35.2881 25.0956 -3
      vertex -35.0956 25.2881 3
      vertex -35.0956 25.2881 -3
    endloop
  endfacet
  facet normal -0.707107 0.707107 0
    outer loop
      vertex -35.0956 25.2881 3
      vertex -35.2881 25.0956 -3
      vertex -35.2881 25.0956 3
    endloop
  endfacet
  facet normal -0.849743 0.527197 0
    outer loop
      vertex -37 22.9275 -3
      vertex -36.9763 22.9657 3
      vertex -36.9763 22.9657 -3
    endloop
  endfacet
  facet normal -0.849743 0.527197 0
    outer loop
      vertex -36.9763 22.9657 3
      vertex -37 22.9275 -3
      vertex -37 22.9275 3
    endloop
  endfacet
  facet normal 0.8029 -0.596114 0
    outer loop
      vertex 36.3549 -23.8598 3
      vertex 36.5172 -23.6412 -3
      vertex 36.5172 -23.6412 3
    endloop
  endfacet
  facet normal 0.8029 -0.596114 0
    outer loop
      vertex 36.5172 -23.6412 -3
      vertex 36.3549 -23.8598 3
      vertex 36.3549 -23.8598 -3
    endloop
  endfacet
  facet normal 0.750159 -0.661257 0
    outer loop
      vertex 35.6609 -24.6987 3
      vertex 35.8409 -24.4945 -3
      vertex 35.8409 -24.4945 3
    endloop
  endfacet
  facet normal 0.750159 -0.661257 0
    outer loop
      vertex 35.8409 -24.4945 -3
      vertex 35.6609 -24.6987 3
      vertex 35.6609 -24.6987 -3
    endloop
  endfacet
  facet normal 0.790064 -0.613025 0
    outer loop
      vertex 36.188 -24.0749 3
      vertex 36.3549 -23.8598 -3
      vertex 36.3549 -23.8598 3
    endloop
  endfacet
  facet normal 0.790064 -0.613025 0
    outer loop
      vertex 36.3549 -23.8598 -3
      vertex 36.188 -24.0749 3
      vertex 36.188 -24.0749 -3
    endloop
  endfacet
  facet normal 0.838712 -0.544575 0
    outer loop
      vertex 36.828 -23.1941 3
      vertex 36.9763 -22.9657 -3
      vertex 36.9763 -22.9657 3
    endloop
  endfacet
  facet normal 0.838712 -0.544575 0
    outer loop
      vertex 36.9763 -22.9657 -3
      vertex 36.828 -23.1941 3
      vertex 36.828 -23.1941 -3
    endloop
  endfacet
  facet normal 0.613025 -0.790064 0
    outer loop
      vertex 33.8598 -26.3549 -3
      vertex 34.0749 -26.188 3
      vertex 33.8598 -26.3549 3
    endloop
  endfacet
  facet normal 0.613025 -0.790064 0
    outer loop
      vertex 34.0749 -26.188 3
      vertex 33.8598 -26.3549 -3
      vertex 34.0749 -26.188 -3
    endloop
  endfacet
  facet normal 0.692264 -0.721644 0
    outer loop
      vertex 34.8991 -25.4766 -3
      vertex 35.0956 -25.2881 3
      vertex 34.8991 -25.4766 3
    endloop
  endfacet
  facet normal 0.692264 -0.721644 0
    outer loop
      vertex 35.0956 -25.2881 3
      vertex 34.8991 -25.4766 -3
      vertex 35.0956 -25.2881 -3
    endloop
  endfacet
  facet normal 0.629209 -0.777236 0
    outer loop
      vertex 34.0749 -26.188 -3
      vertex 34.2865 -26.0167 3
      vertex 34.0749 -26.188 3
    endloop
  endfacet
  facet normal 0.629209 -0.777236 0
    outer loop
      vertex 34.2865 -26.0167 3
      vertex 34.0749 -26.188 -3
      vertex 34.2865 -26.0167 -3
    endloop
  endfacet
  facet normal 0.736055 -0.676921 0
    outer loop
      vertex 35.4766 -24.8991 3
      vertex 35.6609 -24.6987 -3
      vertex 35.6609 -24.6987 3
    endloop
  endfacet
  facet normal 0.736055 -0.676921 0
    outer loop
      vertex 35.6609 -24.6987 -3
      vertex 35.4766 -24.8991 3
      vertex 35.4766 -24.8991 -3
    endloop
  endfacet
  facet normal 0.645514 -0.763748 0
    outer loop
      vertex 34.2865 -26.0167 -3
      vertex 34.4945 -25.8409 3
      vertex 34.2865 -26.0167 3
    endloop
  endfacet
  facet normal 0.645514 -0.763748 0
    outer loop
      vertex 34.4945 -25.8409 3
      vertex 34.2865 -26.0167 -3
      vertex 34.4945 -25.8409 -3
    endloop
  endfacet
  facet normal 0.707107 -0.707107 0
    outer loop
      vertex 35.0956 -25.2881 3
      vertex 35.2881 -25.0956 -3
      vertex 35.2881 -25.0956 3
    endloop
  endfacet
  facet normal 0.707107 -0.707107 0
    outer loop
      vertex 35.2881 -25.0956 -3
      vertex 35.0956 -25.2881 3
      vertex 35.0956 -25.2881 -3
    endloop
  endfacet
  facet normal 0.59618 -0.802851 0
    outer loop
      vertex 33.6644 -26.5 -3
      vertex 33.8598 -26.3549 3
      vertex 33.6644 -26.5 3
    endloop
  endfacet
  facet normal 0.59618 -0.802851 0
    outer loop
      vertex 33.8598 -26.3549 3
      vertex 33.6644 -26.5 -3
      vertex 33.8598 -26.3549 -3
    endloop
  endfacet
  facet normal 0.763748 -0.645514 0
    outer loop
      vertex 35.8409 -24.4945 3
      vertex 36.0167 -24.2865 -3
      vertex 36.0167 -24.2865 3
    endloop
  endfacet
  facet normal 0.763748 -0.645514 0
    outer loop
      vertex 36.0167 -24.2865 -3
      vertex 35.8409 -24.4945 3
      vertex 35.8409 -24.4945 -3
    endloop
  endfacet
  facet normal 0.849743 -0.527197 0
    outer loop
      vertex 36.9763 -22.9657 3
      vertex 37 -22.9275 -3
      vertex 37 -22.9275 3
    endloop
  endfacet
  facet normal 0.849743 -0.527197 0
    outer loop
      vertex 37 -22.9275 -3
      vertex 36.9763 -22.9657 3
      vertex 36.9763 -22.9657 -3
    endloop
  endfacet
  facet normal 0.826988 -0.56222 0
    outer loop
      vertex 36.6749 -23.4193 3
      vertex 36.828 -23.1941 -3
      vertex 36.828 -23.1941 3
    endloop
  endfacet
  facet normal 0.826988 -0.56222 0
    outer loop
      vertex 36.828 -23.1941 -3
      vertex 36.6749 -23.4193 3
      vertex 36.6749 -23.4193 -3
    endloop
  endfacet
  facet normal 0.815121 -0.579291 0
    outer loop
      vertex 36.5172 -23.6412 3
      vertex 36.6749 -23.4193 -3
      vertex 36.6749 -23.4193 3
    endloop
  endfacet
  facet normal 0.815121 -0.579291 0
    outer loop
      vertex 36.6749 -23.4193 -3
      vertex 36.5172 -23.6412 3
      vertex 36.5172 -23.6412 -3
    endloop
  endfacet
  facet normal 0.721644 -0.692264 0
    outer loop
      vertex 35.2881 -25.0956 3
      vertex 35.4766 -24.8991 -3
      vertex 35.4766 -24.8991 3
    endloop
  endfacet
  facet normal 0.721644 -0.692264 0
    outer loop
      vertex 35.4766 -24.8991 -3
      vertex 35.2881 -25.0956 3
      vertex 35.2881 -25.0956 -3
    endloop
  endfacet
  facet normal 0.777236 -0.629209 0
    outer loop
      vertex 36.0167 -24.2865 3
      vertex 36.188 -24.0749 -3
      vertex 36.188 -24.0749 3
    endloop
  endfacet
  facet normal 0.777236 -0.629209 0
    outer loop
      vertex 36.188 -24.0749 -3
      vertex 36.0167 -24.2865 3
      vertex 36.0167 -24.2865 -3
    endloop
  endfacet
  facet normal 0.676921 -0.736055 0
    outer loop
      vertex 34.6987 -25.6609 -3
      vertex 34.8991 -25.4766 3
      vertex 34.6987 -25.6609 3
    endloop
  endfacet
  facet normal 0.676921 -0.736055 0
    outer loop
      vertex 34.8991 -25.4766 3
      vertex 34.6987 -25.6609 -3
      vertex 34.8991 -25.4766 -3
    endloop
  endfacet
  facet normal 0.661257 -0.750159 0
    outer loop
      vertex 34.4945 -25.8409 -3
      vertex 34.6987 -25.6609 3
      vertex 34.4945 -25.8409 3
    endloop
  endfacet
  facet normal 0.661257 -0.750159 0
    outer loop
      vertex 34.6987 -25.6609 3
      vertex 34.4945 -25.8409 -3
      vertex 34.6987 -25.6609 -3
    endloop
  endfacet
  facet normal 0.838712 0.544575 0
    outer loop
      vertex 36.9763 22.9657 3
      vertex 36.828 23.1941 -3
      vertex 36.828 23.1941 3
    endloop
  endfacet
  facet normal 0.838712 0.544575 0
    outer loop
      vertex 36.828 23.1941 -3
      vertex 36.9763 22.9657 3
      vertex 36.9763 22.9657 -3
    endloop
  endfacet
  facet normal 0.629209 0.777236 -0
    outer loop
      vertex 34.2865 26.0167 -3
      vertex 34.0749 26.188 3
      vertex 34.2865 26.0167 3
    endloop
  endfacet
  facet normal 0.629209 0.777236 0
    outer loop
      vertex 34.0749 26.188 3
      vertex 34.2865 26.0167 -3
      vertex 34.0749 26.188 -3
    endloop
  endfacet
  facet normal 0.763748 0.645514 0
    outer loop
      vertex 36.0167 24.2865 3
      vertex 35.8409 24.4945 -3
      vertex 35.8409 24.4945 3
    endloop
  endfacet
  facet normal 0.763748 0.645514 0
    outer loop
      vertex 35.8409 24.4945 -3
      vertex 36.0167 24.2865 3
      vertex 36.0167 24.2865 -3
    endloop
  endfacet
  facet normal 0.777236 0.629209 0
    outer loop
      vertex 36.188 24.0749 3
      vertex 36.0167 24.2865 -3
      vertex 36.0167 24.2865 3
    endloop
  endfacet
  facet normal 0.777236 0.629209 0
    outer loop
      vertex 36.0167 24.2865 -3
      vertex 36.188 24.0749 3
      vertex 36.188 24.0749 -3
    endloop
  endfacet
  facet normal 0.676921 0.736055 -0
    outer loop
      vertex 34.8991 25.4766 -3
      vertex 34.6987 25.6609 3
      vertex 34.8991 25.4766 3
    endloop
  endfacet
  facet normal 0.676921 0.736055 0
    outer loop
      vertex 34.6987 25.6609 3
      vertex 34.8991 25.4766 -3
      vertex 34.6987 25.6609 -3
    endloop
  endfacet
  facet normal 0.736055 0.676921 0
    outer loop
      vertex 35.6609 24.6987 3
      vertex 35.4766 24.8991 -3
      vertex 35.4766 24.8991 3
    endloop
  endfacet
  facet normal 0.736055 0.676921 0
    outer loop
      vertex 35.4766 24.8991 -3
      vertex 35.6609 24.6987 3
      vertex 35.6609 24.6987 -3
    endloop
  endfacet
  facet normal 0.750159 0.661257 0
    outer loop
      vertex 35.8409 24.4945 3
      vertex 35.6609 24.6987 -3
      vertex 35.6609 24.6987 3
    endloop
  endfacet
  facet normal 0.750159 0.661257 0
    outer loop
      vertex 35.6609 24.6987 -3
      vertex 35.8409 24.4945 3
      vertex 35.8409 24.4945 -3
    endloop
  endfacet
  facet normal 0.645514 0.763748 -0
    outer loop
      vertex 34.4945 25.8409 -3
      vertex 34.2865 26.0167 3
      vertex 34.4945 25.8409 3
    endloop
  endfacet
  facet normal 0.645514 0.763748 0
    outer loop
      vertex 34.2865 26.0167 3
      vertex 34.4945 25.8409 -3
      vertex 34.2865 26.0167 -3
    endloop
  endfacet
  facet normal 0.826988 0.56222 0
    outer loop
      vertex 36.828 23.1941 3
      vertex 36.6749 23.4193 -3
      vertex 36.6749 23.4193 3
    endloop
  endfacet
  facet normal 0.826988 0.56222 0
    outer loop
      vertex 36.6749 23.4193 -3
      vertex 36.828 23.1941 3
      vertex 36.828 23.1941 -3
    endloop
  endfacet
  facet normal 0.721644 0.692264 0
    outer loop
      vertex 35.4766 24.8991 3
      vertex 35.2881 25.0956 -3
      vertex 35.2881 25.0956 3
    endloop
  endfacet
  facet normal 0.721644 0.692264 0
    outer loop
      vertex 35.2881 25.0956 -3
      vertex 35.4766 24.8991 3
      vertex 35.4766 24.8991 -3
    endloop
  endfacet
  facet normal 0.849743 0.527197 0
    outer loop
      vertex 37 22.9275 3
      vertex 36.9763 22.9657 -3
      vertex 36.9763 22.9657 3
    endloop
  endfacet
  facet normal 0.849743 0.527197 0
    outer loop
      vertex 36.9763 22.9657 -3
      vertex 37 22.9275 3
      vertex 37 22.9275 -3
    endloop
  endfacet
  facet normal 0.707107 0.707107 0
    outer loop
      vertex 35.2881 25.0956 3
      vertex 35.0956 25.2881 -3
      vertex 35.0956 25.2881 3
    endloop
  endfacet
  facet normal 0.707107 0.707107 0
    outer loop
      vertex 35.0956 25.2881 -3
      vertex 35.2881 25.0956 3
      vertex 35.2881 25.0956 -3
    endloop
  endfacet
  facet normal 0.661257 0.750159 -0
    outer loop
      vertex 34.6987 25.6609 -3
      vertex 34.4945 25.8409 3
      vertex 34.6987 25.6609 3
    endloop
  endfacet
  facet normal 0.661257 0.750159 0
    outer loop
      vertex 34.4945 25.8409 3
      vertex 34.6987 25.6609 -3
      vertex 34.4945 25.8409 -3
    endloop
  endfacet
  facet normal 0.613025 0.790064 -0
    outer loop
      vertex 34.0749 26.188 -3
      vertex 33.8598 26.3549 3
      vertex 34.0749 26.188 3
    endloop
  endfacet
  facet normal 0.613025 0.790064 0
    outer loop
      vertex 33.8598 26.3549 3
      vertex 34.0749 26.188 -3
      vertex 33.8598 26.3549 -3
    endloop
  endfacet
  facet normal 0.790064 0.613025 0
    outer loop
      vertex 36.3549 23.8598 3
      vertex 36.188 24.0749 -3
      vertex 36.188 24.0749 3
    endloop
  endfacet
  facet normal 0.790064 0.613025 0
    outer loop
      vertex 36.188 24.0749 -3
      vertex 36.3549 23.8598 3
      vertex 36.3549 23.8598 -3
    endloop
  endfacet
  facet normal 0.815121 0.579291 0
    outer loop
      vertex 36.6749 23.4193 3
      vertex 36.5172 23.6412 -3
      vertex 36.5172 23.6412 3
    endloop
  endfacet
  facet normal 0.815121 0.579291 0
    outer loop
      vertex 36.5172 23.6412 -3
      vertex 36.6749 23.4193 3
      vertex 36.6749 23.4193 -3
    endloop
  endfacet
  facet normal 0.59618 0.802851 -0
    outer loop
      vertex 33.8598 26.3549 -3
      vertex 33.6644 26.5 3
      vertex 33.8598 26.3549 3
    endloop
  endfacet
  facet normal 0.59618 0.802851 0
    outer loop
      vertex 33.6644 26.5 3
      vertex 33.8598 26.3549 -3
      vertex 33.6644 26.5 -3
    endloop
  endfacet
  facet normal 0.8029 0.596114 0
    outer loop
      vertex 36.5172 23.6412 3
      vertex 36.3549 23.8598 -3
      vertex 36.3549 23.8598 3
    endloop
  endfacet
  facet normal 0.8029 0.596114 0
    outer loop
      vertex 36.3549 23.8598 -3
      vertex 36.5172 23.6412 3
      vertex 36.5172 23.6412 -3
    endloop
  endfacet
  facet normal 0.692264 0.721644 -0
    outer loop
      vertex 35.0956 25.2881 -3
      vertex 34.8991 25.4766 3
      vertex 35.0956 25.2881 3
    endloop
  endfacet
  facet normal 0.692264 0.721644 0
    outer loop
      vertex 34.8991 25.4766 3
      vertex 35.0956 25.2881 -3
      vertex 34.8991 25.4766 -3
    endloop
  endfacet
  facet normal 1 -0 0
    outer loop
      vertex 37 -22.9275 3
      vertex 37 22.9275 -3
      vertex 37 22.9275 3
    endloop
  endfacet
  facet normal 1 0 0
    outer loop
      vertex 37 22.9275 -3
      vertex 37 -22.9275 3
      vertex 37 -22.9275 -3
    endloop
  endfacet
  facet normal -0 0 1
    outer loop
      vertex 24.5 -7.5 3
      vertex 34.5 -9.5 3
      vertex 34.5 -7.5 3
    endloop
  endfacet
  facet normal 0 0 1
    outer loop
      vertex 34.5 -9.5 3
      vertex 24.5 -7.5 3
      vertex 24.5 -9.5 3
    endloop
  endfacet
  facet normal -0 0 1
    outer loop
      vertex 24.5 9.5 3
      vertex 34.5 7.5 3
      vertex 34.5 9.5 3
    endloop
  endfacet
  facet normal 0 0 1
    outer loop
      vertex 34.5 7.5 3
      vertex 24.5 9.5 3
      vertex 24.5 7.5 3
    endloop
  endfacet
  facet normal 0 0 1
    outer loop
      vertex 34.5 24.5 3
      vertex 37 22.9275 3
      vertex 36.9763 22.9657 3
    endloop
  endfacet
  facet normal 0 0 1
    outer loop
      vertex 37 22.9275 3
      vertex 34.5 7.5 3
      vertex 37 -22.9275 3
    endloop
  endfacet
  facet normal 0 0 1
    outer loop
      vertex 34.5 24.5 3
      vertex 36.9763 22.9657 3
      vertex 36.828 23.1941 3
    endloop
  endfacet
  facet normal -0 0 1
    outer loop
      vertex 34.5 -7.5 3
      vertex 37 -22.9275 3
      vertex 34.5 7.5 3
    endloop
  endfacet
  facet normal 0 0 1
    outer loop
      vertex 34.5 24.5 3
      vertex 36.828 23.1941 3
      vertex 36.6749 23.4193 3
    endloop
  endfacet
  facet normal -0 0 1
    outer loop
      vertex 34.5 -9.5 3
      vertex 37 -22.9275 3
      vertex 34.5 -7.5 3
    endloop
  endfacet
  facet normal 0 0 1
    outer loop
      vertex 34.5 24.5 3
      vertex 36.6749 23.4193 3
      vertex 36.5172 23.6412 3
    endloop
  endfacet
  facet normal 0 0 1
    outer loop
      vertex 34.5 -24.5 3
      vertex 37 -22.9275 3
      vertex 34.5 -9.5 3
    endloop
  endfacet
  facet normal 0 0 1
    outer loop
      vertex 34.5 24.5 3
      vertex 36.5172 23.6412 3
      vertex 36.3549 23.8598 3
    endloop
  endfacet
  facet normal 0 0 1
    outer loop
      vertex 37 -22.9275 3
      vertex 34.5 -24.5 3
      vertex 36.9763 -22.9657 3
    endloop
  endfacet
  facet normal 0 0 1
    outer loop
      vertex 34.5 24.5 3
      vertex 36.3549 23.8598 3
      vertex 36.188 24.0749 3
    endloop
  endfacet
  facet normal 0 0 1
    outer loop
      vertex 36.9763 -22.9657 3
      vertex 34.5 -24.5 3
      vertex 36.828 -23.1941 3
    endloop
  endfacet
  facet normal 0 0 1
    outer loop
      vertex 34.5 24.5 3
      vertex 36.188 24.0749 3
      vertex 36.0167 24.2865 3
    endloop
  endfacet
  facet normal 0 0 1
    outer loop
      vertex 36.828 -23.1941 3
      vertex 34.5 -24.5 3
      vertex 36.6749 -23.4193 3
    endloop
  endfacet
  facet normal 0 0 1
    outer loop
      vertex 34.5 24.5 3
      vertex 36.0167 24.2865 3
      vertex 35.8409 24.4945 3
    endloop
  endfacet
  facet normal 0 0 1
    outer loop
      vertex 36.6749 -23.4193 3
      vertex 34.5 -24.5 3
      vertex 36.5172 -23.6412 3
    endloop
  endfacet
  facet normal -0 0 1
    outer loop
      vertex 34.5 24.5 3
      vertex 35.8409 24.4945 3
      vertex 35.6609 24.6987 3
    endloop
  endfacet
  facet normal 0 0 1
    outer loop
      vertex 36.5172 -23.6412 3
      vertex 34.5 -24.5 3
      vertex 36.3549 -23.8598 3
    endloop
  endfacet
  facet normal 0 0 1
    outer loop
      vertex 34.5 24.5 3
      vertex 35.6609 24.6987 3
      vertex 35.4766 24.8991 3
    endloop
  endfacet
  facet normal 0 0 1
    outer loop
      vertex 36.3549 -23.8598 3
      vertex 34.5 -24.5 3
      vertex 36.188 -24.0749 3
    endloop
  endfacet
  facet normal 0 0 1
    outer loop
      vertex 34.5 24.5 3
      vertex 35.4766 24.8991 3
      vertex 35.2881 25.0956 3
    endloop
  endfacet
  facet normal 0 0 1
    outer loop
      vertex 36.188 -24.0749 3
      vertex 34.5 -24.5 3
      vertex 36.0167 -24.2865 3
    endloop
  endfacet
  facet normal 0 0 1
    outer loop
      vertex 34.5 24.5 3
      vertex 35.2881 25.0956 3
      vertex 35.0956 25.2881 3
    endloop
  endfacet
  facet normal 0 0 1
    outer loop
      vertex 36.0167 -24.2865 3
      vertex 34.5 -24.5 3
      vertex 35.8409 -24.4945 3
    endloop
  endfacet
  facet normal 0 0 1
    outer loop
      vertex 34.5 24.5 3
      vertex 35.0956 25.2881 3
      vertex 34.8991 25.4766 3
    endloop
  endfacet
  facet normal 0 0 1
    outer loop
      vertex 35.8409 -24.4945 3
      vertex 34.5 -24.5 3
      vertex 35.6609 -24.6987 3
    endloop
  endfacet
  facet normal 0 0 1
    outer loop
      vertex 34.5 24.5 3
      vertex 34.8991 25.4766 3
      vertex 34.6987 25.6609 3
    endloop
  endfacet
  facet normal 0 0 1
    outer loop
      vertex 37 22.9275 3
      vertex 34.5 9.5 3
      vertex 34.5 7.5 3
    endloop
  endfacet
  facet normal 0 0 1
    outer loop
      vertex 37 22.9275 3
      vertex 34.5 24.5 3
      vertex 34.5 9.5 3
    endloop
  endfacet
  facet normal 0 0 1
    outer loop
      vertex 34.4945 25.8409 3
      vertex 34.5 24.5 3
      vertex 34.6987 25.6609 3
    endloop
  endfacet
  facet normal 0 0 1
    outer loop
      vertex 34.2865 26.0167 3
      vertex 34.5 24.5 3
      vertex 34.4945 25.8409 3
    endloop
  endfacet
  facet normal 0 0 1
    outer loop
      vertex 34.0749 26.188 3
      vertex 34.5 24.5 3
      vertex 34.2865 26.0167 3
    endloop
  endfacet
  facet normal 0 0 1
    outer loop
      vertex 33.8598 26.3549 3
      vertex 34.5 24.5 3
      vertex 34.0749 26.188 3
    endloop
  endfacet
  facet normal 0 0 1
    outer loop
      vertex 33.6644 26.5 3
      vertex 34.5 24.5 3
      vertex 33.8598 26.3549 3
    endloop
  endfacet
  facet normal 0 0 1
    outer loop
      vertex 33.6644 26.5 3
      vertex 13.5 24.5 3
      vertex 34.5 24.5 3
    endloop
  endfacet
  facet normal 0 0 1
    outer loop
      vertex 13.5 24.5 3
      vertex 10.5 24.5 3
      vertex 13.5 17 3
    endloop
  endfacet
  facet normal 0 0 1
    outer loop
      vertex 33.6644 26.5 3
      vertex 10.5 24.5 3
      vertex 13.5 24.5 3
    endloop
  endfacet
  facet normal 0 0 1
    outer loop
      vertex 33.6644 26.5 3
      vertex -10.5 24.5 3
      vertex 10.5 24.5 3
    endloop
  endfacet
  facet normal 0 0 1
    outer loop
      vertex -10.5 24.5 3
      vertex -13.5 24.5 3
      vertex -10.5 17 3
    endloop
  endfacet
  facet normal -0 0 1
    outer loop
      vertex -33.6644 26.5 3
      vertex -10.5 24.5 3
      vertex 33.6644 26.5 3
    endloop
  endfacet
  facet normal 0 0 1
    outer loop
      vertex -10.5 24.5 3
      vertex -33.6644 26.5 3
      vertex -13.5 24.5 3
    endloop
  endfacet
  facet normal 0 0 1
    outer loop
      vertex -34.5 24.5 3
      vertex -33.6644 26.5 3
      vertex -33.8598 26.3549 3
    endloop
  endfacet
  facet normal 0 0 1
    outer loop
      vertex -34.5 24.5 3
      vertex -33.8598 26.3549 3
      vertex -34.0749 26.188 3
    endloop
  endfacet
  facet normal 0 0 1
    outer loop
      vertex -34.5 24.5 3
      vertex -34.0749 26.188 3
      vertex -34.2865 26.0167 3
    endloop
  endfacet
  facet normal 0 0 1
    outer loop
      vertex -34.5 24.5 3
      vertex -34.2865 26.0167 3
      vertex -34.4945 25.8409 3
    endloop
  endfacet
  facet normal 0 0 1
    outer loop
      vertex -33.6644 26.5 3
      vertex -34.5 24.5 3
      vertex -13.5 24.5 3
    endloop
  endfacet
  facet normal -0 0 1
    outer loop
      vertex -37 22.9275 3
      vertex -34.5 9.5 3
      vertex -34.5 24.5 3
    endloop
  endfacet
  facet normal 0 0 1
    outer loop
      vertex -34.5 9.5 3
      vertex -37 22.9275 3
      vertex -34.5 7.5 3
    endloop
  endfacet
  facet normal 0 0 1
    outer loop
      vertex -34.5 7.5 3
      vertex -37 22.9275 3
      vertex -34.5 -7.5 3
    endloop
  endfacet
  facet normal 0 0 1
    outer loop
      vertex -37 -22.9275 3
      vertex -34.5 -7.5 3
      vertex -37 22.9275 3
    endloop
  endfacet
  facet normal -0 0 1
    outer loop
      vertex -34.8991 25.4766 3
      vertex -34.5 24.5 3
      vertex -34.6987 25.6609 3
    endloop
  endfacet
  facet normal -0 0 1
    outer loop
      vertex -34.6987 25.6609 3
      vertex -34.5 24.5 3
      vertex -34.4945 25.8409 3
    endloop
  endfacet
  facet normal 0 0 1
    outer loop
      vertex 35.6609 -24.6987 3
      vertex 34.5 -24.5 3
      vertex 35.4766 -24.8991 3
    endloop
  endfacet
  facet normal 0 0 1
    outer loop
      vertex 35.4766 -24.8991 3
      vertex 34.5 -24.5 3
      vertex 35.2881 -25.0956 3
    endloop
  endfacet
  facet normal 0 0 1
    outer loop
      vertex 35.2881 -25.0956 3
      vertex 34.5 -24.5 3
      vertex 35.0956 -25.2881 3
    endloop
  endfacet
  facet normal 0 0 1
    outer loop
      vertex 35.0956 -25.2881 3
      vertex 34.5 -24.5 3
      vertex 34.8991 -25.4766 3
    endloop
  endfacet
  facet normal 0 0 1
    outer loop
      vertex 34.8991 -25.4766 3
      vertex 34.5 -24.5 3
      vertex 34.6987 -25.6609 3
    endloop
  endfacet
  facet normal 0 0 1
    outer loop
      vertex 34.5 -24.5 3
      vertex 34.4945 -25.8409 3
      vertex 34.6987 -25.6609 3
    endloop
  endfacet
  facet normal 0 0 1
    outer loop
      vertex 34.5 -24.5 3
      vertex 34.2865 -26.0167 3
      vertex 34.4945 -25.8409 3
    endloop
  endfacet
  facet normal 0 0 1
    outer loop
      vertex 34.5 -24.5 3
      vertex 34.0749 -26.188 3
      vertex 34.2865 -26.0167 3
    endloop
  endfacet
  facet normal 0 0 1
    outer loop
      vertex 34.5 -24.5 3
      vertex 33.8598 -26.3549 3
      vertex 34.0749 -26.188 3
    endloop
  endfacet
  facet normal 0 0 1
    outer loop
      vertex 34.5 -24.5 3
      vertex 33.6644 -26.5 3
      vertex 33.8598 -26.3549 3
    endloop
  endfacet
  facet normal -0 0 1
    outer loop
      vertex 25.75 -24.5 3
      vertex 33.6644 -26.5 3
      vertex 34.5 -24.5 3
    endloop
  endfacet
  facet normal 0 0 1
    outer loop
      vertex 33.6644 -26.5 3
      vertex 25.75 -24.5 3
      vertex 25.75 -26.5 3
    endloop
  endfacet
  facet normal 0 0 1
    outer loop
      vertex 13.5 17 3
      vertex 10.5 24.5 3
      vertex 10.5 17 3
    endloop
  endfacet
  facet normal 0 0 1
    outer loop
      vertex -10.5 17 3
      vertex -13.5 24.5 3
      vertex -13.5 17 3
    endloop
  endfacet
  facet normal -0 0 1
    outer loop
      vertex -34.5 9.5 3
      vertex -24.5 7.5 3
      vertex -24.5 9.5 3
    endloop
  endfacet
  facet normal 0 0 1
    outer loop
      vertex -24.5 7.5 3
      vertex -34.5 9.5 3
      vertex -34.5 7.5 3
    endloop
  endfacet
  facet normal -0 0 1
    outer loop
      vertex -34.5 -7.5 3
      vertex -24.5 -9.5 3
      vertex -24.5 -7.5 3
    endloop
  endfacet
  facet normal 0 0 1
    outer loop
      vertex -24.5 -9.5 3
      vertex -34.5 -7.5 3
      vertex -34.5 -9.5 3
    endloop
  endfacet
  facet normal 0 0 1
    outer loop
      vertex -10.5 -17 3
      vertex -13.5 -17 3
      vertex -10.5 -24.5 3
    endloop
  endfacet
  facet normal 0 0 1
    outer loop
      vertex 13.5 -17 3
      vertex 10.5 -17 3
      vertex 13.5 -24.5 3
    endloop
  endfacet
  facet normal -0 0 1
    outer loop
      vertex 13.5 -24.5 3
      vertex 16.25 -26.5 3
      vertex 16.25 -24.5 3
    endloop
  endfacet
  facet normal 0 0 1
    outer loop
      vertex 10.5 -24.5 3
      vertex 13.5 -24.5 3
      vertex 10.5 -17 3
    endloop
  endfacet
  facet normal -0 0 1
    outer loop
      vertex 10.5 -24.5 3
      vertex 16.25 -26.5 3
      vertex 13.5 -24.5 3
    endloop
  endfacet
  facet normal -0 0 1
    outer loop
      vertex -10.5 -24.5 3
      vertex 16.25 -26.5 3
      vertex 10.5 -24.5 3
    endloop
  endfacet
  facet normal 0 0 1
    outer loop
      vertex -13.5 -24.5 3
      vertex -10.5 -24.5 3
      vertex -13.5 -17 3
    endloop
  endfacet
  facet normal 0 0 1
    outer loop
      vertex -33.6644 -26.5 3
      vertex -10.5 -24.5 3
      vertex -13.5 -24.5 3
    endloop
  endfacet
  facet normal 0 0 1
    outer loop
      vertex -10.5 -24.5 3
      vertex -33.6644 -26.5 3
      vertex 16.25 -26.5 3
    endloop
  endfacet
  facet normal -0 0 1
    outer loop
      vertex -34.5 -24.5 3
      vertex -33.6644 -26.5 3
      vertex -13.5 -24.5 3
    endloop
  endfacet
  facet normal 0 0 1
    outer loop
      vertex -33.6644 -26.5 3
      vertex -34.5 -24.5 3
      vertex -33.8598 -26.3549 3
    endloop
  endfacet
  facet normal 0 0 1
    outer loop
      vertex -33.8598 -26.3549 3
      vertex -34.5 -24.5 3
      vertex -34.0749 -26.188 3
    endloop
  endfacet
  facet normal 0 0 1
    outer loop
      vertex -34.0749 -26.188 3
      vertex -34.5 -24.5 3
      vertex -34.2865 -26.0167 3
    endloop
  endfacet
  facet normal 0 0 1
    outer loop
      vertex -34.2865 -26.0167 3
      vertex -34.5 -24.5 3
      vertex -34.4945 -25.8409 3
    endloop
  endfacet
  facet normal 0 0 1
    outer loop
      vertex -34.5 -24.5 3
      vertex -34.6987 -25.6609 3
      vertex -34.4945 -25.8409 3
    endloop
  endfacet
  facet normal 0 0 1
    outer loop
      vertex -34.5 -7.5 3
      vertex -37 -22.9275 3
      vertex -34.5 -9.5 3
    endloop
  endfacet
  facet normal -0 0 1
    outer loop
      vertex -35.0956 25.2881 3
      vertex -34.5 24.5 3
      vertex -34.8991 25.4766 3
    endloop
  endfacet
  facet normal 0 0 1
    outer loop
      vertex -34.5 -9.5 3
      vertex -37 -22.9275 3
      vertex -34.5 -24.5 3
    endloop
  endfacet
  facet normal -0 0 1
    outer loop
      vertex -35.2881 25.0956 3
      vertex -34.5 24.5 3
      vertex -35.0956 25.2881 3
    endloop
  endfacet
  facet normal -0 -0 1
    outer loop
      vertex -36.9763 -22.9657 3
      vertex -34.5 -24.5 3
      vertex -37 -22.9275 3
    endloop
  endfacet
  facet normal -0 0 1
    outer loop
      vertex -35.4766 24.8991 3
      vertex -34.5 24.5 3
      vertex -35.2881 25.0956 3
    endloop
  endfacet
  facet normal 0 0 1
    outer loop
      vertex -34.5 -24.5 3
      vertex -34.8991 -25.4766 3
      vertex -34.6987 -25.6609 3
    endloop
  endfacet
  facet normal -0 0 1
    outer loop
      vertex -35.6609 24.6987 3
      vertex -34.5 24.5 3
      vertex -35.4766 24.8991 3
    endloop
  endfacet
  facet normal 0 0 1
    outer loop
      vertex -34.5 -24.5 3
      vertex -35.0956 -25.2881 3
      vertex -34.8991 -25.4766 3
    endloop
  endfacet
  facet normal 0 0 1
    outer loop
      vertex -35.8409 24.4945 3
      vertex -34.5 24.5 3
      vertex -35.6609 24.6987 3
    endloop
  endfacet
  facet normal 0 0 1
    outer loop
      vertex -34.5 -24.5 3
      vertex -35.2881 -25.0956 3
      vertex -35.0956 -25.2881 3
    endloop
  endfacet
  facet normal 0 0 1
    outer loop
      vertex -36.0167 24.2865 3
      vertex -34.5 24.5 3
      vertex -35.8409 24.4945 3
    endloop
  endfacet
  facet normal 0 0 1
    outer loop
      vertex -34.5 -24.5 3
      vertex -35.4766 -24.8991 3
      vertex -35.2881 -25.0956 3
    endloop
  endfacet
  facet normal 0 0 1
    outer loop
      vertex -36.188 24.0749 3
      vertex -34.5 24.5 3
      vertex -36.0167 24.2865 3
    endloop
  endfacet
  facet normal 0 0 1
    outer loop
      vertex -34.5 -24.5 3
      vertex -35.6609 -24.6987 3
      vertex -35.4766 -24.8991 3
    endloop
  endfacet
  facet normal 0 0 1
    outer loop
      vertex -36.3549 23.8598 3
      vertex -34.5 24.5 3
      vertex -36.188 24.0749 3
    endloop
  endfacet
  facet normal 0 0 1
    outer loop
      vertex -34.5 -24.5 3
      vertex -35.8409 -24.4945 3
      vertex -35.6609 -24.6987 3
    endloop
  endfacet
  facet normal 0 0 1
    outer loop
      vertex -36.5172 23.6412 3
      vertex -34.5 24.5 3
      vertex -36.3549 23.8598 3
    endloop
  endfacet
  facet normal 0 0 1
    outer loop
      vertex -34.5 -24.5 3
      vertex -36.0167 -24.2865 3
      vertex -35.8409 -24.4945 3
    endloop
  endfacet
  facet normal 0 0 1
    outer loop
      vertex -36.6749 23.4193 3
      vertex -34.5 24.5 3
      vertex -36.5172 23.6412 3
    endloop
  endfacet
  facet normal 0 0 1
    outer loop
      vertex -34.5 -24.5 3
      vertex -36.188 -24.0749 3
      vertex -36.0167 -24.2865 3
    endloop
  endfacet
  facet normal 0 0 1
    outer loop
      vertex -36.828 23.1941 3
      vertex -34.5 24.5 3
      vertex -36.6749 23.4193 3
    endloop
  endfacet
  facet normal 0 0 1
    outer loop
      vertex -34.5 -24.5 3
      vertex -36.3549 -23.8598 3
      vertex -36.188 -24.0749 3
    endloop
  endfacet
  facet normal 0 0 1
    outer loop
      vertex -36.9763 22.9657 3
      vertex -34.5 24.5 3
      vertex -36.828 23.1941 3
    endloop
  endfacet
  facet normal 0 0 1
    outer loop
      vertex -34.5 -24.5 3
      vertex -36.5172 -23.6412 3
      vertex -36.3549 -23.8598 3
    endloop
  endfacet
  facet normal 0 0 1
    outer loop
      vertex -34.5 24.5 3
      vertex -36.9763 22.9657 3
      vertex -37 22.9275 3
    endloop
  endfacet
  facet normal 0 0 1
    outer loop
      vertex -34.5 -24.5 3
      vertex -36.6749 -23.4193 3
      vertex -36.5172 -23.6412 3
    endloop
  endfacet
  facet normal 0 0 1
    outer loop
      vertex -34.5 -24.5 3
      vertex -36.828 -23.1941 3
      vertex -36.6749 -23.4193 3
    endloop
  endfacet
  facet normal 0 0 1
    outer loop
      vertex -34.5 -24.5 3
      vertex -36.9763 -22.9657 3
      vertex -36.828 -23.1941 3
    endloop
  endfacet
  facet normal 0 0 -1
    outer loop
      vertex 33.6644 -26.5 -3
      vertex 37 -22.9275 -3
      vertex 36.9763 -22.9657 -3
    endloop
  endfacet
  facet normal 0 0 -1
    outer loop
      vertex 37 -22.9275 -3
      vertex -4 3 -3
      vertex 37 22.9275 -3
    endloop
  endfacet
  facet normal 0 0 -1
    outer loop
      vertex 33.6644 -26.5 -3
      vertex 36.9763 -22.9657 -3
      vertex 36.828 -23.1941 -3
    endloop
  endfacet
  facet normal 0 0 -1
    outer loop
      vertex -4.15297 4.45538 -3
      vertex 37 22.9275 -3
      vertex -4 3 -3
    endloop
  endfacet
  facet normal 0 0 -1
    outer loop
      vertex 33.6644 -26.5 -3
      vertex 36.828 -23.1941 -3
      vertex 36.6749 -23.4193 -3
    endloop
  endfacet
  facet normal 0 -0 -1
    outer loop
      vertex 33.6644 26.5 -3
      vertex 37 22.9275 -3
      vertex -4.15297 4.45538 -3
    endloop
  endfacet
  facet normal 0 0 -1
    outer loop
      vertex 33.6644 -26.5 -3
      vertex 36.6749 -23.4193 -3
      vertex 36.5172 -23.6412 -3
    endloop
  endfacet
  facet normal 0 0 -1
    outer loop
      vertex 37 22.9275 -3
      vertex 33.6644 26.5 -3
      vertex 36.9763 22.9657 -3
    endloop
  endfacet
  facet normal 0 0 -1
    outer loop
      vertex 33.6644 -26.5 -3
      vertex 36.5172 -23.6412 -3
      vertex 36.3549 -23.8598 -3
    endloop
  endfacet
  facet normal 0 0 -1
    outer loop
      vertex 36.9763 22.9657 -3
      vertex 33.6644 26.5 -3
      vertex 36.828 23.1941 -3
    endloop
  endfacet
  facet normal 0 0 -1
    outer loop
      vertex 33.6644 -26.5 -3
      vertex 36.3549 -23.8598 -3
      vertex 36.188 -24.0749 -3
    endloop
  endfacet
  facet normal 0 0 -1
    outer loop
      vertex 36.828 23.1941 -3
      vertex 33.6644 26.5 -3
      vertex 36.6749 23.4193 -3
    endloop
  endfacet
  facet normal 0 0 -1
    outer loop
      vertex 33.6644 -26.5 -3
      vertex 36.188 -24.0749 -3
      vertex 36.0167 -24.2865 -3
    endloop
  endfacet
  facet normal 0 0 -1
    outer loop
      vertex 36.6749 23.4193 -3
      vertex 33.6644 26.5 -3
      vertex 36.5172 23.6412 -3
    endloop
  endfacet
  facet normal 0 0 -1
    outer loop
      vertex 33.6644 -26.5 -3
      vertex 36.0167 -24.2865 -3
      vertex 35.8409 -24.4945 -3
    endloop
  endfacet
  facet normal 0 0 -1
    outer loop
      vertex 36.5172 23.6412 -3
      vertex 33.6644 26.5 -3
      vertex 36.3549 23.8598 -3
    endloop
  endfacet
  facet normal 0 0 -1
    outer loop
      vertex 33.6644 -26.5 -3
      vertex 35.8409 -24.4945 -3
      vertex 35.6609 -24.6987 -3
    endloop
  endfacet
  facet normal 0 0 -1
    outer loop
      vertex 36.3549 23.8598 -3
      vertex 33.6644 26.5 -3
      vertex 36.188 24.0749 -3
    endloop
  endfacet
  facet normal 0 0 -1
    outer loop
      vertex 33.6644 -26.5 -3
      vertex 35.6609 -24.6987 -3
      vertex 35.4766 -24.8991 -3
    endloop
  endfacet
  facet normal 0 0 -1
    outer loop
      vertex 36.188 24.0749 -3
      vertex 33.6644 26.5 -3
      vertex 36.0167 24.2865 -3
    endloop
  endfacet
  facet normal 0 0 -1
    outer loop
      vertex 33.6644 -26.5 -3
      vertex 35.4766 -24.8991 -3
      vertex 35.2881 -25.0956 -3
    endloop
  endfacet
  facet normal 0 0 -1
    outer loop
      vertex 36.0167 24.2865 -3
      vertex 33.6644 26.5 -3
      vertex 35.8409 24.4945 -3
    endloop
  endfacet
  facet normal 0 0 -1
    outer loop
      vertex 33.6644 -26.5 -3
      vertex 35.2881 -25.0956 -3
      vertex 35.0956 -25.2881 -3
    endloop
  endfacet
  facet normal 0 0 -1
    outer loop
      vertex 35.8409 24.4945 -3
      vertex 33.6644 26.5 -3
      vertex 35.6609 24.6987 -3
    endloop
  endfacet
  facet normal 0 0 -1
    outer loop
      vertex 33.6644 -26.5 -3
      vertex 35.0956 -25.2881 -3
      vertex 34.8991 -25.4766 -3
    endloop
  endfacet
  facet normal 0 0 -1
    outer loop
      vertex 35.6609 24.6987 -3
      vertex 33.6644 26.5 -3
      vertex 35.4766 24.8991 -3
    endloop
  endfacet
  facet normal 0 0 -1
    outer loop
      vertex 33.6644 -26.5 -3
      vertex 34.8991 -25.4766 -3
      vertex 34.6987 -25.6609 -3
    endloop
  endfacet
  facet normal 0 0 -1
    outer loop
      vertex 35.4766 24.8991 -3
      vertex 33.6644 26.5 -3
      vertex 35.2881 25.0956 -3
    endloop
  endfacet
  facet normal 0 0 -1
    outer loop
      vertex 33.6644 -26.5 -3
      vertex 34.6987 -25.6609 -3
      vertex 34.4945 -25.8409 -3
    endloop
  endfacet
  facet normal 0 0 -1
    outer loop
      vertex 35.2881 25.0956 -3
      vertex 33.6644 26.5 -3
      vertex 35.0956 25.2881 -3
    endloop
  endfacet
  facet normal 0 0 -1
    outer loop
      vertex 33.6644 -26.5 -3
      vertex 34.4945 -25.8409 -3
      vertex 34.2865 -26.0167 -3
    endloop
  endfacet
  facet normal 0 0 -1
    outer loop
      vertex 35.0956 25.2881 -3
      vertex 33.6644 26.5 -3
      vertex 34.8991 25.4766 -3
    endloop
  endfacet
  facet normal 0 0 -1
    outer loop
      vertex 33.6644 -26.5 -3
      vertex 34.2865 -26.0167 -3
      vertex 34.0749 -26.188 -3
    endloop
  endfacet
  facet normal 0 0 -1
    outer loop
      vertex 34.8991 25.4766 -3
      vertex 33.6644 26.5 -3
      vertex 34.6987 25.6609 -3
    endloop
  endfacet
  facet normal 0 0 -1
    outer loop
      vertex 33.6644 -26.5 -3
      vertex 34.0749 -26.188 -3
      vertex 33.8598 -26.3549 -3
    endloop
  endfacet
  facet normal 0 0 -1
    outer loop
      vertex 34.6987 25.6609 -3
      vertex 33.6644 26.5 -3
      vertex 34.4945 25.8409 -3
    endloop
  endfacet
  facet normal -0 0 -1
    outer loop
      vertex 37 -22.9275 -3
      vertex 33.6644 -26.5 -3
      vertex -4.60518 0.152843 -3
    endloop
  endfacet
  facet normal 0 0 -1
    outer loop
      vertex 34.4945 25.8409 -3
      vertex 33.6644 26.5 -3
      vertex 34.2865 26.0167 -3
    endloop
  endfacet
  facet normal 0 0 -1
    outer loop
      vertex 34.2865 26.0167 -3
      vertex 33.6644 26.5 -3
      vertex 34.0749 26.188 -3
    endloop
  endfacet
  facet normal 0 0 -1
    outer loop
      vertex 37 -22.9275 -3
      vertex -4.15297 1.54462 -3
      vertex -4 3 -3
    endloop
  endfacet
  facet normal 0 0 -1
    outer loop
      vertex 37 -22.9275 -3
      vertex -4.60518 0.152843 -3
      vertex -4.15297 1.54462 -3
    endloop
  endfacet
  facet normal 0 0 -1
    outer loop
      vertex 33.6644 -26.5 -3
      vertex -5.33688 -1.1145 -3
      vertex -4.60518 0.152843 -3
    endloop
  endfacet
  facet normal 0 0 -1
    outer loop
      vertex 33.6644 -26.5 -3
      vertex -6.31608 -2.20201 -3
      vertex -5.33688 -1.1145 -3
    endloop
  endfacet
  facet normal 0 0 -1
    outer loop
      vertex 33.6644 -26.5 -3
      vertex -7.5 -3.06218 -3
      vertex -6.31608 -2.20201 -3
    endloop
  endfacet
  facet normal 0 0 -1
    outer loop
      vertex 33.6644 -26.5 -3
      vertex -8.83688 -3.6574 -3
      vertex -7.5 -3.06218 -3
    endloop
  endfacet
  facet normal 0 0 -1
    outer loop
      vertex -33.6644 -26.5 -3
      vertex -8.83688 -3.6574 -3
      vertex 33.6644 -26.5 -3
    endloop
  endfacet
  facet normal 0 0 -1
    outer loop
      vertex -8.83688 -3.6574 -3
      vertex -33.6644 -26.5 -3
      vertex -10.2683 -3.96165 -3
    endloop
  endfacet
  facet normal -0 0 -1
    outer loop
      vertex -10.2683 -3.96165 -3
      vertex -33.6644 -26.5 -3
      vertex -11.7317 -3.96165 -3
    endloop
  endfacet
  facet normal -0 0 -1
    outer loop
      vertex -11.7317 -3.96165 -3
      vertex -33.6644 -26.5 -3
      vertex -13.1631 -3.6574 -3
    endloop
  endfacet
  facet normal -0 0 -1
    outer loop
      vertex -17.3948 0.152843 -3
      vertex -37 -22.9275 -3
      vertex -17.847 1.54462 -3
    endloop
  endfacet
  facet normal -0 0 -1
    outer loop
      vertex -16.6631 -1.1145 -3
      vertex -37 -22.9275 -3
      vertex -17.3948 0.152843 -3
    endloop
  endfacet
  facet normal -0 0 -1
    outer loop
      vertex -15.6839 -2.20201 -3
      vertex -37 -22.9275 -3
      vertex -16.6631 -1.1145 -3
    endloop
  endfacet
  facet normal 0 0 -1
    outer loop
      vertex -37 -22.9275 -3
      vertex -15.6839 -2.20201 -3
      vertex -33.6644 -26.5 -3
    endloop
  endfacet
  facet normal -0 0 -1
    outer loop
      vertex -14.5 -3.06218 -3
      vertex -33.6644 -26.5 -3
      vertex -15.6839 -2.20201 -3
    endloop
  endfacet
  facet normal -0 0 -1
    outer loop
      vertex -13.1631 -3.6574 -3
      vertex -33.6644 -26.5 -3
      vertex -14.5 -3.06218 -3
    endloop
  endfacet
  facet normal 0 0 -1
    outer loop
      vertex 34.0749 26.188 -3
      vertex 33.6644 26.5 -3
      vertex 33.8598 26.3549 -3
    endloop
  endfacet
  facet normal 0 0 -1
    outer loop
      vertex -4.60518 5.84716 -3
      vertex 33.6644 26.5 -3
      vertex -4.15297 4.45538 -3
    endloop
  endfacet
  facet normal 0 0 -1
    outer loop
      vertex -5.33688 7.1145 -3
      vertex 33.6644 26.5 -3
      vertex -4.60518 5.84716 -3
    endloop
  endfacet
  facet normal 0 0 -1
    outer loop
      vertex -6.31608 8.20201 -3
      vertex 33.6644 26.5 -3
      vertex -5.33688 7.1145 -3
    endloop
  endfacet
  facet normal 0 0 -1
    outer loop
      vertex -7.5 9.06218 -3
      vertex 33.6644 26.5 -3
      vertex -6.31608 8.20201 -3
    endloop
  endfacet
  facet normal 0 0 -1
    outer loop
      vertex -8.83688 9.6574 -3
      vertex 33.6644 26.5 -3
      vertex -7.5 9.06218 -3
    endloop
  endfacet
  facet normal 0 0 -1
    outer loop
      vertex -33.6644 26.5 -3
      vertex -8.83688 9.6574 -3
      vertex -10.2683 9.96165 -3
    endloop
  endfacet
  facet normal 0 0 -1
    outer loop
      vertex -33.6644 26.5 -3
      vertex -10.2683 9.96165 -3
      vertex -11.7317 9.96165 -3
    endloop
  endfacet
  facet normal 0 0 -1
    outer loop
      vertex -33.6644 26.5 -3
      vertex -11.7317 9.96165 -3
      vertex -13.1631 9.6574 -3
    endloop
  endfacet
  facet normal -0 0 -1
    outer loop
      vertex -17.847 1.54462 -3
      vertex -37 -22.9275 -3
      vertex -18 3 -3
    endloop
  endfacet
  facet normal 0 0 -1
    outer loop
      vertex -37 22.9275 -3
      vertex -18 3 -3
      vertex -37 -22.9275 -3
    endloop
  endfacet
  facet normal 0 0 -1
    outer loop
      vertex -8.83688 9.6574 -3
      vertex -33.6644 26.5 -3
      vertex 33.6644 26.5 -3
    endloop
  endfacet
  facet normal 0 0 -1
    outer loop
      vertex -14.5 9.06218 -3
      vertex -33.6644 26.5 -3
      vertex -13.1631 9.6574 -3
    endloop
  endfacet
  facet normal 0 0 -1
    outer loop
      vertex -15.6839 8.20201 -3
      vertex -33.6644 26.5 -3
      vertex -14.5 9.06218 -3
    endloop
  endfacet
  facet normal 0 0 -1
    outer loop
      vertex -16.6631 7.1145 -3
      vertex -33.6644 26.5 -3
      vertex -15.6839 8.20201 -3
    endloop
  endfacet
  facet normal 0 0 -1
    outer loop
      vertex -37 22.9275 -3
      vertex -16.6631 7.1145 -3
      vertex -17.3948 5.84716 -3
    endloop
  endfacet
  facet normal 0 0 -1
    outer loop
      vertex -18 3 -3
      vertex -37 22.9275 -3
      vertex -17.847 4.45538 -3
    endloop
  endfacet
  facet normal 0 0 -1
    outer loop
      vertex -37 -22.9275 -3
      vertex -33.6644 -26.5 -3
      vertex -33.8598 -26.3549 -3
    endloop
  endfacet
  facet normal 0 0 -1
    outer loop
      vertex -17.847 4.45538 -3
      vertex -37 22.9275 -3
      vertex -17.3948 5.84716 -3
    endloop
  endfacet
  facet normal 0 0 -1
    outer loop
      vertex -37 -22.9275 -3
      vertex -33.8598 -26.3549 -3
      vertex -34.0749 -26.188 -3
    endloop
  endfacet
  facet normal 0 0 -1
    outer loop
      vertex -16.6631 7.1145 -3
      vertex -37 22.9275 -3
      vertex -33.6644 26.5 -3
    endloop
  endfacet
  facet normal 0 0 -1
    outer loop
      vertex -37 -22.9275 -3
      vertex -34.0749 -26.188 -3
      vertex -34.2865 -26.0167 -3
    endloop
  endfacet
  facet normal 0 0 -1
    outer loop
      vertex -33.6644 26.5 -3
      vertex -37 22.9275 -3
      vertex -33.8598 26.3549 -3
    endloop
  endfacet
  facet normal 0 0 -1
    outer loop
      vertex -37 -22.9275 -3
      vertex -34.2865 -26.0167 -3
      vertex -34.4945 -25.8409 -3
    endloop
  endfacet
  facet normal 0 0 -1
    outer loop
      vertex -33.8598 26.3549 -3
      vertex -37 22.9275 -3
      vertex -34.0749 26.188 -3
    endloop
  endfacet
  facet normal 0 0 -1
    outer loop
      vertex -37 -22.9275 -3
      vertex -34.4945 -25.8409 -3
      vertex -34.6987 -25.6609 -3
    endloop
  endfacet
  facet normal 0 0 -1
    outer loop
      vertex -34.0749 26.188 -3
      vertex -37 22.9275 -3
      vertex -34.2865 26.0167 -3
    endloop
  endfacet
  facet normal 0 0 -1
    outer loop
      vertex -37 -22.9275 -3
      vertex -34.6987 -25.6609 -3
      vertex -34.8991 -25.4766 -3
    endloop
  endfacet
  facet normal 0 0 -1
    outer loop
      vertex -34.2865 26.0167 -3
      vertex -37 22.9275 -3
      vertex -34.4945 25.8409 -3
    endloop
  endfacet
  facet normal 0 0 -1
    outer loop
      vertex -37 -22.9275 -3
      vertex -34.8991 -25.4766 -3
      vertex -35.0956 -25.2881 -3
    endloop
  endfacet
  facet normal 0 0 -1
    outer loop
      vertex -34.4945 25.8409 -3
      vertex -37 22.9275 -3
      vertex -34.6987 25.6609 -3
    endloop
  endfacet
  facet normal 0 0 -1
    outer loop
      vertex -37 -22.9275 -3
      vertex -35.0956 -25.2881 -3
      vertex -35.2881 -25.0956 -3
    endloop
  endfacet
  facet normal 0 0 -1
    outer loop
      vertex -34.6987 25.6609 -3
      vertex -37 22.9275 -3
      vertex -34.8991 25.4766 -3
    endloop
  endfacet
  facet normal 0 0 -1
    outer loop
      vertex -37 -22.9275 -3
      vertex -35.2881 -25.0956 -3
      vertex -35.4766 -24.8991 -3
    endloop
  endfacet
  facet normal 0 0 -1
    outer loop
      vertex -34.8991 25.4766 -3
      vertex -37 22.9275 -3
      vertex -35.0956 25.2881 -3
    endloop
  endfacet
  facet normal 0 0 -1
    outer loop
      vertex -37 -22.9275 -3
      vertex -35.4766 -24.8991 -3
      vertex -35.6609 -24.6987 -3
    endloop
  endfacet
  facet normal 0 0 -1
    outer loop
      vertex -35.0956 25.2881 -3
      vertex -37 22.9275 -3
      vertex -35.2881 25.0956 -3
    endloop
  endfacet
  facet normal 0 0 -1
    outer loop
      vertex -37 -22.9275 -3
      vertex -35.6609 -24.6987 -3
      vertex -35.8409 -24.4945 -3
    endloop
  endfacet
  facet normal 0 0 -1
    outer loop
      vertex -35.2881 25.0956 -3
      vertex -37 22.9275 -3
      vertex -35.4766 24.8991 -3
    endloop
  endfacet
  facet normal 0 0 -1
    outer loop
      vertex -37 -22.9275 -3
      vertex -35.8409 -24.4945 -3
      vertex -36.0167 -24.2865 -3
    endloop
  endfacet
  facet normal 0 0 -1
    outer loop
      vertex -35.4766 24.8991 -3
      vertex -37 22.9275 -3
      vertex -35.6609 24.6987 -3
    endloop
  endfacet
  facet normal 0 0 -1
    outer loop
      vertex -37 -22.9275 -3
      vertex -36.0167 -24.2865 -3
      vertex -36.188 -24.0749 -3
    endloop
  endfacet
  facet normal 0 0 -1
    outer loop
      vertex -35.6609 24.6987 -3
      vertex -37 22.9275 -3
      vertex -35.8409 24.4945 -3
    endloop
  endfacet
  facet normal 0 0 -1
    outer loop
      vertex -37 -22.9275 -3
      vertex -36.188 -24.0749 -3
      vertex -36.3549 -23.8598 -3
    endloop
  endfacet
  facet normal 0 0 -1
    outer loop
      vertex -35.8409 24.4945 -3
      vertex -37 22.9275 -3
      vertex -36.0167 24.2865 -3
    endloop
  endfacet
  facet normal 0 0 -1
    outer loop
      vertex -37 -22.9275 -3
      vertex -36.3549 -23.8598 -3
      vertex -36.5172 -23.6412 -3
    endloop
  endfacet
  facet normal 0 0 -1
    outer loop
      vertex -36.0167 24.2865 -3
      vertex -37 22.9275 -3
      vertex -36.188 24.0749 -3
    endloop
  endfacet
  facet normal 0 0 -1
    outer loop
      vertex -37 -22.9275 -3
      vertex -36.5172 -23.6412 -3
      vertex -36.6749 -23.4193 -3
    endloop
  endfacet
  facet normal 0 0 -1
    outer loop
      vertex -36.188 24.0749 -3
      vertex -37 22.9275 -3
      vertex -36.3549 23.8598 -3
    endloop
  endfacet
  facet normal 0 0 -1
    outer loop
      vertex -37 -22.9275 -3
      vertex -36.6749 -23.4193 -3
      vertex -36.828 -23.1941 -3
    endloop
  endfacet
  facet normal 0 0 -1
    outer loop
      vertex -36.3549 23.8598 -3
      vertex -37 22.9275 -3
      vertex -36.5172 23.6412 -3
    endloop
  endfacet
  facet normal 0 0 -1
    outer loop
      vertex -37 -22.9275 -3
      vertex -36.828 -23.1941 -3
      vertex -36.9763 -22.9657 -3
    endloop
  endfacet
  facet normal 0 0 -1
    outer loop
      vertex -36.5172 23.6412 -3
      vertex -37 22.9275 -3
      vertex -36.6749 23.4193 -3
    endloop
  endfacet
  facet normal 0 0 -1
    outer loop
      vertex -36.6749 23.4193 -3
      vertex -37 22.9275 -3
      vertex -36.828 23.1941 -3
    endloop
  endfacet
  facet normal 0 0 -1
    outer loop
      vertex -36.828 23.1941 -3
      vertex -37 22.9275 -3
      vertex -36.9763 22.9657 -3
    endloop
  endfacet
  facet normal -1 0 0
    outer loop
      vertex -37 -22.9275 -3
      vertex -37 22.9275 3
      vertex -37 22.9275 -3
    endloop
  endfacet
  facet normal -1 -0 0
    outer loop
      vertex -37 22.9275 3
      vertex -37 -22.9275 -3
      vertex -37 -22.9275 3
    endloop
  endfacet
  facet normal 0 1 -0
    outer loop
      vertex 33.6644 26.5 -3
      vertex -33.6644 26.5 3
      vertex 33.6644 26.5 3
    endloop
  endfacet
  facet normal 0 1 0
    outer loop
      vertex -33.6644 26.5 3
      vertex 33.6644 26.5 -3
      vertex -33.6644 26.5 -3
    endloop
  endfacet
  facet normal 0 -1 0
    outer loop
      vertex -33.6644 -26.5 3
      vertex 16.25 -26.5 -1.5
      vertex 16.25 -26.5 3
    endloop
  endfacet
  facet normal 0 -1 0
    outer loop
      vertex 33.6644 -26.5 -3
      vertex 16.25 -26.5 -1.5
      vertex -33.6644 -26.5 -3
    endloop
  endfacet
  facet normal 0 -1 0
    outer loop
      vertex -33.6644 -26.5 -3
      vertex 16.25 -26.5 -1.5
      vertex -33.6644 -26.5 3
    endloop
  endfacet
  facet normal 0 -1 0
    outer loop
      vertex 25.75 -26.5 -1.5
      vertex 33.6644 -26.5 3
      vertex 25.75 -26.5 3
    endloop
  endfacet
  facet normal 0 -1 0
    outer loop
      vertex 25.75 -26.5 -1.5
      vertex 33.6644 -26.5 -3
      vertex 33.6644 -26.5 3
    endloop
  endfacet
  facet normal 0 -1 0
    outer loop
      vertex 16.25 -26.5 -1.5
      vertex 33.6644 -26.5 -3
      vertex 25.75 -26.5 -1.5
    endloop
  endfacet
  facet normal -1 0 0
    outer loop
      vertex 24.5 7.5 -1.5
      vertex 24.5 9.5 3
      vertex 24.5 9.5 -1.5
    endloop
  endfacet
  facet normal -1 -0 0
    outer loop
      vertex 24.5 9.5 3
      vertex 24.5 7.5 -1.5
      vertex 24.5 7.5 3
    endloop
  endfacet
  facet normal -1 0 0
    outer loop
      vertex 24.5 -9.5 -1.5
      vertex 24.5 -7.5 3
      vertex 24.5 -7.5 -1.5
    endloop
  endfacet
  facet normal -1 -0 0
    outer loop
      vertex 24.5 -7.5 3
      vertex 24.5 -9.5 -1.5
      vertex 24.5 -9.5 3
    endloop
  endfacet
  facet normal 1 -0 0
    outer loop
      vertex -24.5 7.5 3
      vertex -24.5 9.5 -1.5
      vertex -24.5 9.5 3
    endloop
  endfacet
  facet normal 1 0 0
    outer loop
      vertex -24.5 9.5 -1.5
      vertex -24.5 7.5 3
      vertex -24.5 7.5 -1.5
    endloop
  endfacet
  facet normal 1 -0 0
    outer loop
      vertex -24.5 -9.5 3
      vertex -24.5 -7.5 -1.5
      vertex -24.5 -7.5 3
    endloop
  endfacet
  facet normal 1 0 0
    outer loop
      vertex -24.5 -7.5 -1.5
      vertex -24.5 -9.5 3
      vertex -24.5 -9.5 -1.5
    endloop
  endfacet
  facet normal 0 -1 0
    outer loop
      vertex -13.5 17 -1.5
      vertex -10.5 17 3
      vertex -13.5 17 3
    endloop
  endfacet
  facet normal 0 -1 -0
    outer loop
      vertex -10.5 17 3
      vertex -13.5 17 -1.5
      vertex -10.5 17 -1.5
    endloop
  endfacet
  facet normal 0 -1 0
    outer loop
      vertex 10.5 17 -1.5
      vertex 13.5 17 3
      vertex 10.5 17 3
    endloop
  endfacet
  facet normal 0 -1 -0
    outer loop
      vertex 13.5 17 3
      vertex 10.5 17 -1.5
      vertex 13.5 17 -1.5
    endloop
  endfacet
  facet normal 0 1 -0
    outer loop
      vertex -10.5 -17 -1.5
      vertex -13.5 -17 3
      vertex -10.5 -17 3
    endloop
  endfacet
  facet normal 0 1 0
    outer loop
      vertex -13.5 -17 3
      vertex -10.5 -17 -1.5
      vertex -13.5 -17 -1.5
    endloop
  endfacet
  facet normal 0 1 -0
    outer loop
      vertex 13.5 -17 -1.5
      vertex 10.5 -17 3
      vertex 13.5 -17 3
    endloop
  endfacet
  facet normal 0 1 0
    outer loop
      vertex 10.5 -17 3
      vertex 13.5 -17 -1.5
      vertex 10.5 -17 -1.5
    endloop
  endfacet
  facet normal -1 0 0
    outer loop
      vertex 25.75 -26.5 -1.5
      vertex 25.75 -24.5 3
      vertex 25.75 -24.5 -1.5
    endloop
  endfacet
  facet normal -1 -0 0
    outer loop
      vertex 25.75 -24.5 3
      vertex 25.75 -26.5 -1.5
      vertex 25.75 -26.5 3
    endloop
  endfacet
  facet normal 1 -0 0
    outer loop
      vertex 16.25 -26.5 3
      vertex 16.25 -24.5 -1.5
      vertex 16.25 -24.5 3
    endloop
  endfacet
  facet normal 1 0 0
    outer loop
      vertex 16.25 -24.5 -1.5
      vertex 16.25 -26.5 3
      vertex 16.25 -26.5 -1.5
    endloop
  endfacet
  facet normal -0.951058 -0.309013 0
    outer loop
      vertex -4.15297 4.45538 -3
      vertex -4.60518 5.84716 -1.5
      vertex -4.60518 5.84716 -3
    endloop
  endfacet
  facet normal -0.951058 -0.309013 0
    outer loop
      vertex -4.60518 5.84716 -1.5
      vertex -4.15297 4.45538 -3
      vertex -4.15297 4.45538 -1.5
    endloop
  endfacet
  facet normal -0.994522 -0.104531 0
    outer loop
      vertex -4 3 -3
      vertex -4.15297 4.45538 -1.5
      vertex -4.15297 4.45538 -3
    endloop
  endfacet
  facet normal -0.994522 -0.104531 0
    outer loop
      vertex -4.15297 4.45538 -1.5
      vertex -4 3 -3
      vertex -4 3 -1.5
    endloop
  endfacet
  facet normal -0.587786 0.809016 0
    outer loop
      vertex -6.31608 -2.20201 -3
      vertex -7.5 -3.06218 -1.5
      vertex -6.31608 -2.20201 -1.5
    endloop
  endfacet
  facet normal -0.587786 0.809016 0
    outer loop
      vertex -7.5 -3.06218 -1.5
      vertex -6.31608 -2.20201 -3
      vertex -7.5 -3.06218 -3
    endloop
  endfacet
  facet normal -0.406738 0.913545 0
    outer loop
      vertex -7.5 -3.06218 -3
      vertex -8.83688 -3.6574 -1.5
      vertex -7.5 -3.06218 -1.5
    endloop
  endfacet
  facet normal -0.406738 0.913545 0
    outer loop
      vertex -8.83688 -3.6574 -1.5
      vertex -7.5 -3.06218 -3
      vertex -8.83688 -3.6574 -3
    endloop
  endfacet
  facet normal -0.951058 0.309013 0
    outer loop
      vertex -4.60518 0.152843 -3
      vertex -4.15297 1.54462 -1.5
      vertex -4.15297 1.54462 -3
    endloop
  endfacet
  facet normal -0.951058 0.309013 0
    outer loop
      vertex -4.15297 1.54462 -1.5
      vertex -4.60518 0.152843 -3
      vertex -4.60518 0.152843 -1.5
    endloop
  endfacet
  facet normal 0.406733 0.913547 -0
    outer loop
      vertex -13.1631 -3.6574 -3
      vertex -14.5 -3.06218 -1.5
      vertex -13.1631 -3.6574 -1.5
    endloop
  endfacet
  facet normal 0.406733 0.913547 0
    outer loop
      vertex -14.5 -3.06218 -1.5
      vertex -13.1631 -3.6574 -3
      vertex -14.5 -3.06218 -3
    endloop
  endfacet
  facet normal 0.587793 0.809012 -0
    outer loop
      vertex -14.5 -3.06218 -3
      vertex -15.6839 -2.20201 -1.5
      vertex -14.5 -3.06218 -1.5
    endloop
  endfacet
  facet normal 0.587793 0.809012 0
    outer loop
      vertex -15.6839 -2.20201 -1.5
      vertex -14.5 -3.06218 -3
      vertex -15.6839 -2.20201 -3
    endloop
  endfacet
  facet normal 0.743144 0.669131 0
    outer loop
      vertex -15.6839 -2.20201 -1.5
      vertex -16.6631 -1.1145 -3
      vertex -16.6631 -1.1145 -1.5
    endloop
  endfacet
  facet normal 0.743144 0.669131 0
    outer loop
      vertex -16.6631 -1.1145 -3
      vertex -15.6839 -2.20201 -1.5
      vertex -15.6839 -2.20201 -3
    endloop
  endfacet
  facet normal -0.587786 -0.809016 0
    outer loop
      vertex -7.5 9.06218 -3
      vertex -6.31608 8.20201 -1.5
      vertex -7.5 9.06218 -1.5
    endloop
  endfacet
  facet normal -0.587786 -0.809016 -0
    outer loop
      vertex -6.31608 8.20201 -1.5
      vertex -7.5 9.06218 -3
      vertex -6.31608 8.20201 -3
    endloop
  endfacet
  facet normal -0.994522 0.104531 0
    outer loop
      vertex -4.15297 1.54462 -3
      vertex -4 3 -1.5
      vertex -4 3 -3
    endloop
  endfacet
  facet normal -0.994522 0.104531 0
    outer loop
      vertex -4 3 -1.5
      vertex -4.15297 1.54462 -3
      vertex -4.15297 1.54462 -1.5
    endloop
  endfacet
  facet normal 0.587793 -0.809012 0
    outer loop
      vertex -15.6839 8.20201 -3
      vertex -14.5 9.06218 -1.5
      vertex -15.6839 8.20201 -1.5
    endloop
  endfacet
  facet normal 0.587793 -0.809012 0
    outer loop
      vertex -14.5 9.06218 -1.5
      vertex -15.6839 8.20201 -3
      vertex -14.5 9.06218 -3
    endloop
  endfacet
  facet normal -0.207907 0.978149 0
    outer loop
      vertex -8.83688 -3.6574 -3
      vertex -10.2683 -3.96165 -1.5
      vertex -8.83688 -3.6574 -1.5
    endloop
  endfacet
  facet normal -0.207907 0.978149 0
    outer loop
      vertex -10.2683 -3.96165 -1.5
      vertex -8.83688 -3.6574 -3
      vertex -10.2683 -3.96165 -3
    endloop
  endfacet
  facet normal 0 1 -0
    outer loop
      vertex -10.2683 -3.96165 -3
      vertex -11.7317 -3.96165 -1.5
      vertex -10.2683 -3.96165 -1.5
    endloop
  endfacet
  facet normal 0 1 0
    outer loop
      vertex -11.7317 -3.96165 -1.5
      vertex -10.2683 -3.96165 -3
      vertex -11.7317 -3.96165 -3
    endloop
  endfacet
  facet normal 0.207909 0.978148 -0
    outer loop
      vertex -11.7317 -3.96165 -3
      vertex -13.1631 -3.6574 -1.5
      vertex -11.7317 -3.96165 -1.5
    endloop
  endfacet
  facet normal 0.207909 0.978148 0
    outer loop
      vertex -13.1631 -3.6574 -1.5
      vertex -11.7317 -3.96165 -3
      vertex -13.1631 -3.6574 -3
    endloop
  endfacet
  facet normal -0.866026 0.5 0
    outer loop
      vertex -5.33688 -1.1145 -3
      vertex -4.60518 0.152843 -1.5
      vertex -4.60518 0.152843 -3
    endloop
  endfacet
  facet normal -0.866026 0.5 0
    outer loop
      vertex -4.60518 0.152843 -1.5
      vertex -5.33688 -1.1145 -3
      vertex -5.33688 -1.1145 -1.5
    endloop
  endfacet
  facet normal 0.207909 -0.978148 0
    outer loop
      vertex -13.1631 9.6574 -3
      vertex -11.7317 9.96165 -1.5
      vertex -13.1631 9.6574 -1.5
    endloop
  endfacet
  facet normal 0.207909 -0.978148 0
    outer loop
      vertex -11.7317 9.96165 -1.5
      vertex -13.1631 9.6574 -3
      vertex -11.7317 9.96165 -3
    endloop
  endfacet
  facet normal 0.95106 0.309007 0
    outer loop
      vertex -17.3948 0.152843 -1.5
      vertex -17.847 1.54462 -3
      vertex -17.847 1.54462 -1.5
    endloop
  endfacet
  facet normal 0.95106 0.309007 0
    outer loop
      vertex -17.847 1.54462 -3
      vertex -17.3948 0.152843 -1.5
      vertex -17.3948 0.152843 -3
    endloop
  endfacet
  facet normal 0.743144 -0.669131 0
    outer loop
      vertex -16.6631 7.1145 -1.5
      vertex -15.6839 8.20201 -3
      vertex -15.6839 8.20201 -1.5
    endloop
  endfacet
  facet normal 0.743144 -0.669131 0
    outer loop
      vertex -15.6839 8.20201 -3
      vertex -16.6631 7.1145 -1.5
      vertex -16.6631 7.1145 -3
    endloop
  endfacet
  facet normal -0.743144 -0.669131 0
    outer loop
      vertex -5.33688 7.1145 -3
      vertex -6.31608 8.20201 -1.5
      vertex -6.31608 8.20201 -3
    endloop
  endfacet
  facet normal -0.743144 -0.669131 0
    outer loop
      vertex -6.31608 8.20201 -1.5
      vertex -5.33688 7.1145 -3
      vertex -5.33688 7.1145 -1.5
    endloop
  endfacet
  facet normal -0.743144 0.669131 0
    outer loop
      vertex -6.31608 -2.20201 -3
      vertex -5.33688 -1.1145 -1.5
      vertex -5.33688 -1.1145 -3
    endloop
  endfacet
  facet normal -0.743144 0.669131 0
    outer loop
      vertex -5.33688 -1.1145 -1.5
      vertex -6.31608 -2.20201 -3
      vertex -6.31608 -2.20201 -1.5
    endloop
  endfacet
  facet normal 0.95106 -0.309007 0
    outer loop
      vertex -17.847 4.45538 -1.5
      vertex -17.3948 5.84716 -3
      vertex -17.3948 5.84716 -1.5
    endloop
  endfacet
  facet normal 0.95106 -0.309007 0
    outer loop
      vertex -17.3948 5.84716 -3
      vertex -17.847 4.45538 -1.5
      vertex -17.847 4.45538 -3
    endloop
  endfacet
  facet normal 0 -1 0
    outer loop
      vertex -11.7317 9.96165 -3
      vertex -10.2683 9.96165 -1.5
      vertex -11.7317 9.96165 -1.5
    endloop
  endfacet
  facet normal 0 -1 -0
    outer loop
      vertex -10.2683 9.96165 -1.5
      vertex -11.7317 9.96165 -3
      vertex -10.2683 9.96165 -3
    endloop
  endfacet
  facet normal 0.866025 -0.5 0
    outer loop
      vertex -17.3948 5.84716 -1.5
      vertex -16.6631 7.1145 -3
      vertex -16.6631 7.1145 -1.5
    endloop
  endfacet
  facet normal 0.866025 -0.5 0
    outer loop
      vertex -16.6631 7.1145 -3
      vertex -17.3948 5.84716 -1.5
      vertex -17.3948 5.84716 -3
    endloop
  endfacet
  facet normal 0.866026 0.5 0
    outer loop
      vertex -16.6631 -1.1145 -1.5
      vertex -17.3948 0.152843 -3
      vertex -17.3948 0.152843 -1.5
    endloop
  endfacet
  facet normal 0.866026 0.5 0
    outer loop
      vertex -17.3948 0.152843 -3
      vertex -16.6631 -1.1145 -1.5
      vertex -16.6631 -1.1145 -3
    endloop
  endfacet
  facet normal 0.99452 0.104551 0
    outer loop
      vertex -17.847 1.54462 -1.5
      vertex -18 3 -3
      vertex -18 3 -1.5
    endloop
  endfacet
  facet normal 0.99452 0.104551 0
    outer loop
      vertex -18 3 -3
      vertex -17.847 1.54462 -1.5
      vertex -17.847 1.54462 -3
    endloop
  endfacet
  facet normal -0.207907 -0.978149 0
    outer loop
      vertex -10.2683 9.96165 -3
      vertex -8.83688 9.6574 -1.5
      vertex -10.2683 9.96165 -1.5
    endloop
  endfacet
  facet normal -0.207907 -0.978149 -0
    outer loop
      vertex -8.83688 9.6574 -1.5
      vertex -10.2683 9.96165 -3
      vertex -8.83688 9.6574 -3
    endloop
  endfacet
  facet normal 0.99452 -0.104551 0
    outer loop
      vertex -18 3 -1.5
      vertex -17.847 4.45538 -3
      vertex -17.847 4.45538 -1.5
    endloop
  endfacet
  facet normal 0.99452 -0.104551 0
    outer loop
      vertex -17.847 4.45538 -3
      vertex -18 3 -1.5
      vertex -18 3 -3
    endloop
  endfacet
  facet normal -0.866025 -0.5 0
    outer loop
      vertex -4.60518 5.84716 -3
      vertex -5.33688 7.1145 -1.5
      vertex -5.33688 7.1145 -3
    endloop
  endfacet
  facet normal -0.866025 -0.5 0
    outer loop
      vertex -5.33688 7.1145 -1.5
      vertex -4.60518 5.84716 -3
      vertex -4.60518 5.84716 -1.5
    endloop
  endfacet
  facet normal 0.406733 -0.913547 0
    outer loop
      vertex -14.5 9.06218 -3
      vertex -13.1631 9.6574 -1.5
      vertex -14.5 9.06218 -1.5
    endloop
  endfacet
  facet normal 0.406733 -0.913547 0
    outer loop
      vertex -13.1631 9.6574 -1.5
      vertex -14.5 9.06218 -3
      vertex -13.1631 9.6574 -3
    endloop
  endfacet
  facet normal -0.406738 -0.913545 0
    outer loop
      vertex -8.83688 9.6574 -3
      vertex -7.5 9.06218 -1.5
      vertex -8.83688 9.6574 -1.5
    endloop
  endfacet
  facet normal -0.406738 -0.913545 -0
    outer loop
      vertex -7.5 9.06218 -1.5
      vertex -8.83688 9.6574 -3
      vertex -7.5 9.06218 -3
    endloop
  endfacet
endsolid OpenSCAD_Model
